<?xml version="1.0" encoding="UTF-8"?>
<svg version="1.1" xmlns="http://www.w3.org/2000/svg" width="1024" height="1024">
<path d="M0 0 C337.92 0 675.84 0 1024 0 C1024 337.92 1024 675.84 1024 1024 C686.08 1024 348.16 1024 0 1024 C0 686.08 0 348.16 0 0 Z " fill="#0A2443" transform="translate(0,0)"/>
<path d="M0 0 C337.92 0 675.84 0 1024 0 C1024 337.92 1024 675.84 1024 1024 C686.08 1024 348.16 1024 0 1024 C0 686.08 0 348.16 0 0 Z M280 149 C279.37303223 149.40105957 278.74606445 149.80211914 278.10009766 150.21533203 C263.08627116 159.85048373 248.59759171 170.45108533 235 182 C233.9415755 182.8843172 232.88297137 183.76841943 231.82421875 184.65234375 C218.19002911 196.10976112 205.19376772 208.23301714 193.32910156 221.52246094 C192.04571166 222.94918314 190.73807557 224.3539797 189.4296875 225.7578125 C182.83698206 232.84652085 176.87093873 240.31512994 171 248 C170.50709473 248.64130859 170.01418945 249.28261719 169.50634766 249.94335938 C158.69031369 264.04003665 148.91398314 278.63172515 140 294 C139.62439941 294.64146973 139.24879883 295.28293945 138.86181641 295.94384766 C90.89208578 378.27329231 72.78149342 477.64711295 95.1875 618.5 C110.21162206 675.1888678 135.80778215 728.73440144 172 775 C172.63808594 775.81855469 173.27617187 776.63710938 173.93359375 777.48046875 C185.86927412 792.58618898 198.67158396 806.73815824 212.25 820.375 C212.99451416 821.12418701 213.73902832 821.87337402 214.50610352 822.64526367 C219.17562275 827.30129168 223.99132763 831.7127799 229 836 C229.96421875 836.845625 230.9284375 837.69125 231.921875 838.5625 C259.57545472 862.39652451 290.44156373 881.64481997 323 898 C324.21139648 898.61270752 324.21139648 898.61270752 325.44726562 899.23779297 C360.39429749 916.79227296 398.47538122 928.14318208 436.9375 934.75 C438.00444092 934.93651123 439.07138184 935.12302246 440.1706543 935.31518555 C463.43272957 939.0864537 486.65162346 940.51065488 510.17871094 940.39111328 C513.58209338 940.37395337 516.98477485 940.38425464 520.388134 940.40144348 C537.77765916 940.47565702 554.77709653 939.45754027 572 937 C573.60188423 936.77567291 573.60188423 936.77567291 575.23612976 936.54681396 C657.75746067 924.91058167 737.82637171 888.25059907 799.19921875 831.5546875 C801.34058799 829.60147205 803.50538912 827.70408124 805.703125 825.81640625 C810.70748975 821.45033228 815.37879755 816.7673797 820.0625 812.0625 C820.92166016 811.20720703 821.78082031 810.35191406 822.66601562 809.47070312 C827.65295975 804.47613953 832.42569909 799.37376413 837 794 C837.88884492 792.97875045 838.77813585 791.95788883 839.66796875 790.9375 C873.35553719 751.66145122 899.64718454 705.68343166 917 657 C917.52883789 655.53481934 917.52883789 655.53481934 918.06835938 654.04003906 C925.89033761 632.19573399 931.92700778 609.75134707 935.8125 586.875 C935.99514404 585.80749512 936.17778809 584.73999023 936.3659668 583.64013672 C936.97959975 579.76787188 937.50769408 575.88912468 938 572 C938.18841965 570.52953217 938.18841965 570.52953217 938.38064575 569.02935791 C940.70536522 550.37735005 941.44942906 531.91827433 941.3225708 513.1449585 C941.30907848 510.43872589 941.31443193 507.73265568 941.31941795 505.02640438 C941.35064493 482.80527173 940.05820104 461.08542267 936.25 439.1875 C936.11994568 438.42584534 935.98989136 437.66419067 935.855896 436.87945557 C929.48974188 399.69329154 918.83209946 364.2550366 903 330 C902.43974121 328.77095947 902.43974121 328.77095947 901.86816406 327.51708984 C889.58747328 300.62943254 874.27925029 275.26144006 856 252 C855.15679423 250.90292582 854.31439098 249.8052345 853.47265625 248.70703125 C844.91344527 237.60335792 836.00207979 226.62508593 825.88867188 216.89135742 C824.07615812 215.07626641 822.41915476 213.19869289 820.76171875 211.2421875 C817.13941898 207.07356894 813.24609103 203.30178769 809.1875 199.5625 C808.48318848 198.90926758 807.77887695 198.25603516 807.05322266 197.58300781 C805.66062287 196.29364643 804.26616091 195.00629269 802.86962891 193.72119141 C801.3178522 192.29261661 799.7732257 190.85627953 798.23046875 189.41796875 C792.01223771 183.69472128 785.42480852 178.50193238 778.73632812 173.34667969 C777.13112279 172.1016976 775.54138163 170.83684535 773.953125 169.5703125 C759.51903684 158.16513921 743.94032806 148.16268141 728 139 C727.34596191 138.61956543 726.69192383 138.23913086 726.01806641 137.84716797 C681.33035187 111.9407862 631.92008755 95.23886529 581 87 C580.06365723 86.84692383 579.12731445 86.69384766 578.16259766 86.53613281 C572.12220553 85.56592004 566.07271302 84.73920544 560 84 C559.18402344 83.89558594 558.36804688 83.79117188 557.52734375 83.68359375 C463.27552207 72.03117761 361.57268612 96.53548343 280 149 Z " fill="#FEFEFE" transform="translate(0,0)"/>
<path d="M0 0 C8.13122462 7.01429816 14.42211345 15.28858407 15.265625 26.3515625 C15.46963427 39.23814798 12.12638352 47.01722812 3.5625 56.4375 C1.0625 58.6875 1.0625 58.6875 -2.0390625 60.21875 C-5.2339845 62.94003127 -5.37981806 63.30792172 -5.7421875 67.234375 C-5.79512568 68.96810033 -5.81762415 70.70297421 -5.8125 72.4375 C-5.833125 73.32566406 -5.85375 74.21382813 -5.875 75.12890625 C-5.92203518 77.31604194 -5.9419488 79.49996268 -5.9375 81.6875 C-4.83166817 81.68381283 -3.72583633 81.68012566 -2.58649445 81.67632675 C24.32120855 81.5875273 51.22889254 81.52179637 78.13671112 81.48025131 C91.14913643 81.45962641 104.16146494 81.43150699 117.17382812 81.38574219 C128.51544398 81.34587246 139.85698974 81.32006667 151.19867373 81.31114602 C157.20398417 81.30593156 163.20909405 81.29367678 169.21434021 81.26457977 C174.86794369 81.23740878 180.52126418 81.22905854 186.17492676 81.23506927 C188.24855589 81.23396981 190.32219459 81.22602614 192.39576721 81.2106781 C195.23094684 81.19072407 198.06506341 81.19558074 200.90026855 81.20648193 C201.71741066 81.19483057 202.53455276 81.1831792 203.37645674 81.17117476 C209.94775618 81.23928911 215.38139567 83.03692057 220.12109375 87.72265625 C220.57613281 88.39167969 221.03117188 89.06070313 221.5 89.75 C221.97308594 90.42160156 222.44617188 91.09320313 222.93359375 91.78515625 C225.70664598 96.4580851 225.75719162 101.41877142 225.0625 106.6875 C222.61916106 112.63870315 218.61067882 116.97162769 212.80078125 119.78125 C209.63293337 120.82966756 207.07826838 120.88564876 203.75 120.8125 C202.68136719 120.79445313 201.61273437 120.77640625 200.51171875 120.7578125 C199.70347656 120.73460937 198.89523437 120.71140625 198.0625 120.6875 C198.61035156 121.82058594 199.15820312 122.95367187 199.72265625 124.12109375 C206.72244163 138.67351764 213.4011302 153.36414945 220.06230164 168.07331848 C223.37623508 175.38758035 226.71540216 182.69022666 230.0574646 189.9916687 C239.63987204 210.92759809 249.1805756 231.88234638 258.6640625 252.86328125 C259.05936157 253.73779938 259.45466064 254.6123175 259.86193848 255.51333618 C261.47667626 259.085766 263.0913938 262.65820489 264.70568848 266.23083496 C271.14812576 280.48692827 277.6335856 294.72286769 284.16381836 308.93896484 C284.48095795 309.63051163 284.79809753 310.32205841 285.12484741 311.03456116 C285.97175192 312.8812752 286.81993092 314.72740461 287.66821289 316.57348633 C292.11583233 326.50684054 291.78649439 333.02370148 288.31640625 343.421875 C280.98468257 362.51633293 266.39111157 376.36644509 248.03710938 384.86230469 C237.43438838 389.2932143 226.13498368 390.82822834 214.72509766 390.86450195 C213.81503967 390.87107315 212.90498169 390.87764435 211.96734619 390.88441467 C208.97041725 390.9040406 205.97353831 390.91578998 202.9765625 390.92578125 C201.94507458 390.92985678 200.91358665 390.9339323 199.85084152 390.93813133 C194.38477533 390.95895242 188.91873391 390.97326794 183.45263672 390.98266602 C177.85043857 390.9936868 172.24864237 391.02804815 166.64658546 391.06783772 C162.30182233 391.09418545 157.95715209 391.10237412 153.61231613 391.10594749 C151.5497709 391.11077128 149.48722861 391.12226242 147.42476273 391.14098549 C126.10607898 391.32239908 106.27084189 388.33263787 89.0625 374.6875 C88.22847656 374.03007813 87.39445312 373.37265625 86.53515625 372.6953125 C76.24674653 364.03973206 69.42779755 353.36330125 65.0625 340.6875 C64.67771484 339.59308594 64.67771484 339.59308594 64.28515625 338.4765625 C61.78075767 330.1940417 63.96750972 322.86790239 67.53515625 315.32421875 C67.88965851 314.54722626 68.24416077 313.77023376 68.60940552 312.96969604 C69.7697562 310.43266343 70.94741875 307.90407441 72.125 305.375 C72.94520469 303.58846892 73.76394955 301.80126698 74.58129883 300.01342773 C75.83754654 297.26633378 77.09481668 294.51975494 78.35691833 291.77534485 C82.06782634 283.70539187 85.6814578 275.59455471 89.26950073 267.46939087 C94.92985051 254.65701147 100.67995029 241.88777003 106.49459839 229.14477539 C111.66676547 217.80590435 116.74771998 206.42864152 121.79415894 195.0333252 C128.28349114 180.38461649 134.87891027 165.78487016 141.50488281 151.19750977 C141.88911911 150.35062088 142.27335541 149.50373199 142.66923523 148.63117981 C143.3722254 147.08190609 144.07605606 145.53301321 144.78108215 143.98466492 C148.28895098 136.25233521 151.65799682 128.46922156 155.0625 120.6875 C101.9325 120.6875 48.8025 120.6875 -5.9375 120.6875 C-5.9375 221.6675 -5.9375 322.6475 -5.9375 426.6875 C-17.8175 426.6875 -29.6975 426.6875 -41.9375 426.6875 C-41.9375 325.7075 -41.9375 224.7275 -41.9375 120.6875 C-95.0675 120.6875 -148.1975 120.6875 -202.9375 120.6875 C-195.0175 138.0125 -195.0175 138.0125 -186.9375 155.6875 C-180.12828562 170.85654194 -180.12828562 170.85654194 -177.46875 176.80859375 C-173.21294925 186.32136775 -168.91969208 195.81723589 -164.625 205.3125 C-164.01588776 206.65941422 -164.01588776 206.65941422 -163.39447021 208.03353882 C-158.202857 219.51046132 -152.98212636 230.97355838 -147.73095703 242.42333984 C-139.62547799 260.09885188 -131.69997087 277.85130368 -123.84289551 295.63848877 C-122.95819092 297.64067413 -122.07252992 299.64243342 -121.18652344 301.64404297 C-119.62218259 305.17840668 -118.06059172 308.71397901 -116.5 312.25 C-116.04520264 313.27883301 -115.59040527 314.30766602 -115.12182617 315.36767578 C-114.7116626 316.29950684 -114.30149902 317.23133789 -113.87890625 318.19140625 C-113.52513916 318.99392822 -113.17137207 319.7964502 -112.80688477 320.62329102 C-108.95292771 329.77386864 -111.95692301 338.6993426 -114.9375 347.6875 C-122.50926875 365.54674786 -137.16474264 378.26029602 -154.69795418 385.80201721 C-168.50766002 391.26216753 -183.13305544 391.28448778 -197.75390625 391.21875 C-199.90706049 391.22145408 -202.06021352 391.22534404 -204.21336365 391.23034668 C-208.69534085 391.23619744 -213.17699618 391.22782214 -217.65893555 391.20898438 C-223.35618211 391.18618399 -229.05267503 391.19935373 -234.74989414 391.22327423 C-239.1864727 391.23784091 -243.62287733 391.23307704 -248.05946159 391.22276306 C-250.15826447 391.22012641 -252.25708402 391.22325539 -254.35586739 391.23268127 C-269.80504776 391.28687473 -285.4086253 390.54637697 -299.3125 383 C-299.96549072 382.65751221 -300.61848145 382.31502441 -301.29125977 381.9621582 C-317.95876613 372.9041317 -330.08438839 357.89810156 -336.17578125 340.03515625 C-338.22702548 331.02020083 -338.37869008 324.68208161 -334.3125 316.3125 C-333.70233032 314.97602417 -333.70233032 314.97602417 -333.07983398 313.61254883 C-332.18741172 311.66026081 -331.28488991 309.71256516 -330.37353516 307.76904297 C-328.3849449 303.50178927 -326.48025399 299.19865326 -324.56811523 294.89672852 C-322.93497508 291.22896474 -321.29011781 287.56667826 -319.640625 283.90625 C-319.34764023 283.25600357 -319.05465546 282.60575714 -318.75279236 281.93580627 C-318.13706139 280.56933381 -317.5213024 279.20287398 -316.90551758 277.83642578 C-315.18016401 274.00627141 -313.45742809 270.17493968 -311.734375 266.34375 C-305.98980625 253.57235052 -300.24323157 240.80185422 -294.48852539 228.03501892 C-286.25947379 209.77818645 -278.06189222 191.50830933 -269.94091797 173.203125 C-264.7947726 161.60486874 -259.62143059 150.01891467 -254.4375 138.4375 C-254.05761932 137.58879333 -253.67773865 136.74008667 -253.28634644 135.86566162 C-251.17067842 131.13933258 -249.05437485 126.41328862 -246.9375 121.6875 C-248.15856445 121.61837402 -248.15856445 121.61837402 -249.40429688 121.54785156 C-251.01401367 121.43908691 -251.01401367 121.43908691 -252.65625 121.328125 C-253.71779297 121.26141602 -254.77933594 121.19470703 -255.87304688 121.12597656 C-261.64589079 120.29997053 -265.3367595 117.33036525 -269.3125 113.25 C-272.59628654 108.07172123 -273.85375416 102.79204334 -272.9375 96.6875 C-271.02168233 90.79853773 -268.01483398 87.1400871 -262.9375 83.6875 C-257.88866751 81.54987819 -253.43513343 81.40871582 -248.05374146 81.44699097 C-246.729106 81.44442769 -246.729106 81.44442769 -245.37771022 81.44181263 C-242.42506354 81.43852408 -239.4726452 81.44951103 -236.52001953 81.46044922 C-234.40093491 81.46101347 -232.2818499 81.4606965 -230.1627655 81.45956421 C-224.41326991 81.45899024 -218.66385771 81.47075182 -212.9143815 81.48471212 C-206.90458505 81.49721202 -200.8947867 81.4983894 -194.88497925 81.50076294 C-183.50601033 81.50697988 -172.12707982 81.52339362 -160.74812782 81.54346192 C-147.79298055 81.56581424 -134.83783144 81.57681268 -121.88266969 81.58685279 C-95.23425849 81.60775963 -68.5858814 81.6429398 -41.9375 81.6875 C-41.99853844 78.5976843 -42.09916572 75.51038262 -42.20703125 72.421875 C-42.22382935 71.54708496 -42.24062744 70.67229492 -42.25793457 69.77099609 C-42.3923078 64.68268803 -42.3923078 64.68268803 -44.69042969 60.27612305 C-46.70126603 58.88472783 -48.76599713 57.80711891 -50.9375 56.6875 C-56.83177953 51.327849 -61.50488724 43.15339582 -62.140625 35.12109375 C-62.33241949 22.86222952 -59.42027335 13.44639147 -50.828125 4.48828125 C-36.70413091 -8.68599599 -16.25886849 -12.17358787 0 0 Z " fill="#FDFDFD" transform="translate(535.9375,229.3125)"/>
<path d="M0 0 C0.76188629 -0.0065712 1.52377258 -0.0131424 2.30874634 -0.01991272 C4.81569542 -0.03952782 7.32258485 -0.05128335 9.82958984 -0.0612793 C10.69171459 -0.06535482 11.55383934 -0.06943035 12.44208908 -0.07362938 C17.00761419 -0.09444235 21.57310969 -0.10876328 26.13867188 -0.11816406 C30.82556649 -0.1292042 35.51198321 -0.16359009 40.19870949 -0.20333576 C43.82783824 -0.22963097 47.45685541 -0.23786739 51.08607101 -0.24144554 C52.81224155 -0.24628007 54.53840818 -0.25780322 56.26448441 -0.27648354 C73.59161212 -0.45231684 87.04452923 3.24809738 99.97802734 15.48950195 C114.71444229 31.09431278 114.72450484 48.21212498 114.41552734 68.48950195 C114.39542905 70.79091868 114.37718418 73.09235238 114.36083984 75.39379883 C114.31711518 80.98857489 114.25046813 86.58270771 114.16552734 92.17700195 C111.79032002 92.22119713 109.4159507 92.25326442 107.04052734 92.27856445 C106.37537109 92.29218018 105.71021484 92.3057959 105.02490234 92.31982422 C96.57701974 92.3871174 88.81929435 89.86801315 82.59912109 84.02075195 C77.88170676 77.95366867 76.07453249 70.02353847 75.98974609 62.4934082 C75.96589844 61.40092773 75.94205078 60.30844727 75.91748047 59.18286133 C75.87458836 56.891383 75.84329617 54.59965754 75.82373047 52.30786133 C75.71861786 45.87932887 75.71861786 45.87932887 73.37255859 40.0168457 C69.04858865 36.41226191 65.97517607 35.92155698 60.33666992 35.88647461 C59.65803894 35.87975739 58.97940796 35.87304016 58.2802124 35.86611938 C56.04008623 35.84714799 53.80026008 35.84321501 51.56005859 35.84106445 C49.99549742 35.83463352 48.43093745 35.82790494 46.86637878 35.82089233 C43.58545142 35.80892001 40.30462931 35.80521122 37.02368164 35.80639648 C32.83857702 35.80659912 28.65415567 35.77935459 24.46921253 35.74485207 C21.23564109 35.72250386 18.00223166 35.71856143 14.76859093 35.71961594 C13.22695256 35.71726966 11.68530906 35.70850147 10.14374733 35.6929512 C-1.60420542 35.58558764 -10.22411845 36.94830065 -19.04150391 45.11450195 C-26.05367034 53.18078491 -27.20895698 62.2178897 -27.11181641 72.53637695 C-26.45320127 81.18186021 -22.94420303 88.99953621 -16.83447266 95.17700195 C-6.18203302 103.87287104 3.78997143 104.62079761 16.96362305 104.58105469 C18.6710759 104.58676278 20.37852495 104.59372874 22.08596802 104.60185242 C26.7080416 104.61975287 31.329925 104.61862101 35.95202279 104.61291003 C39.81857192 104.60981291 43.6850848 104.61591663 47.55162877 104.62194878 C56.67873714 104.6359829 65.80575189 104.63444268 74.93286133 104.62304688 C84.32938905 104.61157347 93.72563109 104.62563079 103.12212116 104.65244335 C111.20648428 104.67464285 119.29075801 104.68122796 127.37514943 104.67536694 C132.19607999 104.67200551 137.01682756 104.67435785 141.83773232 104.69161797 C146.37444637 104.70715233 150.91073947 104.70306 155.44743729 104.68431282 C157.10536942 104.68064448 158.76333319 104.68368379 160.42123604 104.69419861 C173.22748114 104.76917038 184.47439459 103.35695408 194.16552734 94.17700195 C201.1557889 86.79749149 204.33632088 78.22114034 204.66552734 68.11450195 C204.3813763 58.84914816 201.2439049 50.23054636 194.56787109 43.5871582 C187.14168845 36.91175446 180.47940088 35.06822389 170.68115234 34.8605957 C169.86555847 34.83981461 169.0499646 34.81903351 168.20965576 34.79762268 C165.6116963 34.73238899 163.01363821 34.67336428 160.41552734 34.61450195 C158.65119435 34.57129182 156.88687122 34.52767673 155.12255859 34.48364258 C150.80364851 34.3767345 146.4846395 34.27539368 142.16552734 34.17700195 C140.328458 29.9795099 138.49548842 25.7802606 136.66625977 21.5793457 C136.04368046 20.15112319 135.41999266 18.72338334 134.79516602 17.29614258 C133.89615198 15.24207072 133.0011665 13.18628396 132.10693359 11.13012695 C131.68813683 10.1767746 131.68813683 10.1767746 131.26087952 9.2041626 C129.96654991 6.21788397 128.90163518 3.34354105 128.16552734 0.17700195 C135.52047496 0.10700371 142.8753489 0.05394097 150.23056412 0.02156544 C153.64715728 0.00601438 157.06351992 -0.01502617 160.47998047 -0.04931641 C164.42200815 -0.08862688 168.36394766 -0.10279445 172.30615234 -0.1159668 C174.11626801 -0.13919258 174.11626801 -0.13919258 175.96295166 -0.16288757 C193.40796111 -0.16629439 208.47267873 5.88690118 221.0859375 17.90209961 C235.01634266 31.83250477 242.35676277 48.95662553 242.60302734 68.55200195 C242.46557892 87.58525573 235.24006922 105.23992006 221.75927734 118.69262695 C220.90333984 119.5124707 220.04740234 120.33231445 219.16552734 121.17700195 C218.53646484 121.7905957 217.90740234 122.40418945 217.25927734 123.03637695 C201.60715516 137.35954537 182.60633007 139.48455533 162.34008789 139.45166016 C160.55824573 139.45601468 158.77640543 139.46120028 156.99456787 139.46714783 C152.18242792 139.48047019 147.37036683 139.48112401 142.55821204 139.47858453 C138.52777095 139.4775101 134.49734551 139.48241026 130.4669078 139.48718995 C120.95082687 139.498262 111.43478542 139.49873568 101.91870117 139.49267578 C92.13198061 139.48663894 82.34540392 139.49894499 72.55870789 139.52024585 C64.1286038 139.53791313 55.69854528 139.5438551 47.26842338 139.54060811 C42.24570378 139.5388031 37.22308681 139.54135272 32.20038414 139.55532265 C27.47327143 139.56797994 22.74638149 139.56588285 18.01927185 139.55291176 C16.29486831 139.55056344 14.57044869 139.55321722 12.84606361 139.56153488 C-0.3995135 139.62076623 -13.22233458 138.86152155 -25.14697266 132.42700195 C-25.81792969 132.07702148 -26.48888672 131.72704102 -27.18017578 131.36645508 C-32.53289976 128.50096005 -37.32506888 125.25910335 -41.83447266 121.17700195 C-42.49447266 120.60852539 -43.15447266 120.04004883 -43.83447266 119.4543457 C-55.44406907 108.77442401 -64.1217402 92.72457525 -64.95751953 76.83813477 C-65.62040983 55.0031752 -61.833125 37.86224974 -46.83447266 21.17700195 C-46.31626953 20.56598633 -45.79806641 19.9549707 -45.26416016 19.32543945 C-33.60943036 6.49938003 -17.07865554 0.06489627 0 0 Z " fill="#FDFDFE" transform="translate(423.83447265625,678.822998046875)"/>
<path d="M0 0 C2.35739901 3.53609852 4.05118953 7.27013767 5.81640625 11.12109375 C6.18863312 11.92808212 6.56085999 12.7350705 6.94436646 13.56651306 C8.15303251 16.18897738 9.35789256 18.81316921 10.5625 21.4375 C11.39482416 23.24630897 12.2272625 25.0550654 13.05981445 26.86376953 C17.65243011 36.84885271 22.21420657 46.84674028 26.703125 56.87890625 C35.37603248 76.25076927 44.22884941 95.54237195 53.125 114.8125 C53.50382324 115.63320984 53.88264648 116.45391968 54.27294922 117.29949951 C58.14154983 125.67836368 62.01978953 134.05255803 65.92578125 142.4140625 C66.52915065 143.70726767 67.132504 145.00048034 67.73583984 146.29370117 C68.83030407 148.63930732 69.92880847 150.98286763 71.02978516 153.32543945 C71.75560791 154.87944458 71.75560791 154.87944458 72.49609375 156.46484375 C72.91044678 157.347771 73.3247998 158.23069824 73.75170898 159.14038086 C75.30677373 162.70276563 76.63518126 166.36048336 78 170 C26.85 170 -24.3 170 -77 170 C-74.10849266 163.06038238 -71.229512 156.15395389 -68.13671875 149.30859375 C-67.78787628 148.53311188 -67.43903381 147.75763 -67.07962036 146.95864868 C-65.95073027 144.45077602 -64.81924871 141.94408377 -63.6875 139.4375 C-62.88693408 137.66138994 -62.08639746 135.88526667 -61.28588867 134.10913086 C-54.5415663 119.15626321 -47.7253977 104.23665173 -40.89343262 89.32368469 C-35.84456166 78.29848712 -30.83637005 67.2547503 -25.82313538 56.21331787 C-23.88091219 51.93659275 -21.93541573 47.66137152 -19.98756409 43.38720703 C-18.64649842 40.44445575 -17.30628708 37.5013157 -15.96609497 34.5581665 C-15.33766476 33.17870491 -14.70884065 31.79942266 -14.07955933 30.42034912 C-10.37950298 22.31111052 -6.73743759 14.18175369 -3.22045898 5.99107361 C-1.10775517 1.10775517 -1.10775517 1.10775517 0 0 Z " fill="#0A2342" transform="translate(311,381)"/>
<path d="M0 0 C2.75643895 3.3385731 4.50817273 6.96490029 6.265625 10.88671875 C6.57545822 11.56760056 6.88529144 12.24848236 7.20451355 12.94999695 C8.2242441 15.19378972 9.23708107 17.44062508 10.25 19.6875 C10.96836318 21.27120855 11.68720188 22.85470149 12.40649414 24.43798828 C13.88773028 27.7004718 15.36624642 30.96416566 16.84228516 34.22900391 C19.72904634 40.61412959 22.62807777 46.99366701 25.52770996 53.37295532 C26.44636028 55.39449755 27.36432529 57.41634999 28.28222656 59.43823242 C32.99115344 69.80615175 37.74051433 80.15520883 42.5 90.5 C52.75111843 112.78574685 62.95064784 135.09434967 72.9375 157.5 C73.45223877 158.65258301 73.96697754 159.80516602 74.49731445 160.99267578 C74.96097412 162.03665527 75.42463379 163.08063477 75.90234375 164.15625 C76.30960693 165.07212891 76.71687012 165.98800781 77.13647461 166.93164062 C78 169 78 169 78 170 C27.18 170 -23.64 170 -76 170 C-74.05803949 164.17411848 -72.14110866 158.79096332 -69.55078125 153.29296875 C-69.22125961 152.58247375 -68.89173798 151.87197876 -68.55223083 151.13995361 C-67.84459578 149.61476341 -67.13495375 148.09050301 -66.42346191 146.56710815 C-64.50173377 142.45089147 -62.59639079 138.32711149 -60.69140625 134.203125 C-60.29988373 133.35604477 -59.90836121 132.50896454 -59.50497437 131.63621521 C-55.49616365 122.94319238 -51.61611486 114.19468102 -47.75 105.4375 C-42.60179375 93.78526039 -37.34033316 82.19954919 -31.93701172 70.6628418 C-27.10665571 60.31261022 -22.47192586 49.87951535 -17.85058594 39.43469238 C-12.01113967 26.23762813 -6.0655545 13.09501495 0 0 Z " fill="#0A2342" transform="translate(712,381)"/>
<path d="M0 0 C53.13 0 106.26 0 161 0 C161 100.98 161 201.96 161 306 C160.67 306 160.34 306 160 306 C160 205.68 160 105.36 160 2 C108.19 2.33 56.38 2.66 3 3 C2.67 3.99 2.34 4.98 2 6 C1.34 4.02 0.68 2.04 0 0 Z " fill="#070B1E" transform="translate(333,350)"/>
<path d="M0 0 C53.13 0 106.26 0 161 0 C160.67 0.99 160.34 1.98 160 3 C107.53 2.67 55.06 2.34 1 2 C1 102.32 1 202.64 1 306 C0.67 306 0.34 306 0 306 C0 205.02 0 104.04 0 0 Z " fill="#070B1E" transform="translate(530,350)"/>
<path d="M0 0 C0.99 1.485 0.99 1.485 2 3 C1.67 3.66 1.34 4.32 1 5 C-48.83 5 -98.66 5 -150 5 C-150 4.67 -150 4.34 -150 4 C-100.83 4 -51.66 4 -1 4 C-0.67 2.68 -0.34 1.36 0 0 Z " fill="#0E2B4C" transform="translate(386,545)"/>
<path d="M0 0 C2.23940742 3.35911113 3.95956038 6.8640549 5.6875 10.5 C6.02072266 11.17675781 6.35394531 11.85351562 6.69726562 12.55078125 C9.11644345 17.65066964 9.11644345 17.65066964 8 21 C5.36 15.72 2.72 10.44 0 5 C-1.32 7.31 -2.64 9.62 -4 12 C-4.33 11.34 -4.66 10.68 -5 10 C-4.00390625 7.6171875 -4.00390625 7.6171875 -2.5625 4.875 C-1.85287109 3.50988281 -1.85287109 3.50988281 -1.12890625 2.1171875 C-0.75636719 1.41851562 -0.38382812 0.71984375 0 0 Z " fill="#101626" transform="translate(311,381)"/>
<path d="M0 0 C2.79224073 -0.08071788 5.58216566 -0.14035408 8.375 -0.1875 C9.1690625 -0.21263672 9.963125 -0.23777344 10.78125 -0.26367188 C12.85586148 -0.29004405 14.93100865 -0.15486462 17 0 C17.66 0.99 18.32 1.98 19 3 C11.41 3 3.82 3 -4 3 C-2.68 2.67 -1.36 2.34 0 2 C0 1.34 0 0.68 0 0 Z " fill="#1D3351" transform="translate(520,82)"/>
<path d="M0 0 C0.6796875 1.65625 0.6796875 1.65625 1 4 C-0.1796875 6.65625 -0.1796875 6.65625 -1.875 9.5 C-4.14206502 13.16530486 -4.14206502 13.16530486 -5.3828125 17.21875 C-6 19 -6 19 -8.5625 20.25 C-9.366875 20.4975 -10.17125 20.745 -11 21 C-10.45730469 20.07058594 -9.91460937 19.14117188 -9.35546875 18.18359375 C-8.63260718 16.93501468 -7.90996253 15.68631001 -7.1875 14.4375 C-6.83107422 13.82841797 -6.47464844 13.21933594 -6.10742188 12.59179688 C-3.74518233 8.49580354 -1.78642845 4.37872209 0 0 Z " fill="#081024" transform="translate(422,572)"/>
<path d="M0 0 C3.68069887 1.53643852 5.98775204 3.78150945 8.75 6.625 C9.54921875 7.44226563 10.3484375 8.25953125 11.171875 9.1015625 C12.07679688 10.04128906 12.07679688 10.04128906 13 11 C12.34 11.66 11.68 12.32 11 13 C9.16052663 11.21427748 7.32842259 9.42197551 5.5 7.625 C4.71302734 6.86316406 4.71302734 6.86316406 3.91015625 6.0859375 C2.56846819 4.76167396 1.28004185 3.38394135 0 2 C0 1.34 0 0.68 0 0 Z " fill="#263244" transform="translate(810,202)"/>
<path d="M0 0 C0.33 0 0.66 0 1 0 C1.08107646 2.75059381 1.14052813 5.49879021 1.1875 8.25 C1.21263672 9.02730469 1.23777344 9.80460938 1.26367188 10.60546875 C1.33834499 16.42997175 1.33834499 16.42997175 -0.51171875 19.546875 C-1.00285156 20.02640625 -1.49398437 20.5059375 -2 21 C-2.02686553 19.02090602 -2.04633375 17.04171029 -2.0625 15.0625 C-2.07410156 13.96035156 -2.08570313 12.85820313 -2.09765625 11.72265625 C-2 9 -2 9 -1 8 C-0.76924918 6.65252916 -0.58846937 5.29622435 -0.4375 3.9375 C-0.293125 2.638125 -0.14875 1.33875 0 0 Z " fill="#0B1A30" transform="translate(939,538)"/>
<path d="M0 0 C5.28 0.33 10.56 0.66 16 1 C15.34 2.65 14.68 4.3 14 6 C13.34 5.67 12.68 5.34 12 5 C12.33 4.34 12.66 3.68 13 3 C11.783125 3.04125 10.56625 3.0825 9.3125 3.125 C5.78105873 3.13754508 3.19996434 2.59998217 0 1 C0 0.67 0 0.34 0 0 Z " fill="#091128" transform="translate(274,349)"/>
<path d="M0 0 C1.20046137 3.6013841 0.73287623 4.14967034 -0.875 7.4375 C-1.97911405 9.71907833 -2.93897902 11.73273755 -3.50390625 14.20703125 C-4 16 -4 16 -6.0625 17.25 C-6.701875 17.4975 -7.34125 17.745 -8 18 C-6.443154 13.98696492 -4.68861143 10.0907072 -2.875 6.1875 C-2.33617187 5.02605469 -1.79734375 3.86460937 -1.2421875 2.66796875 C-0.62730469 1.34732422 -0.62730469 1.34732422 0 0 Z " fill="#060E21" transform="translate(825,569)"/>
<path d="M0 0 C-4.98229776 1.91626837 -9.72684667 2.5547115 -15 3 C-15.33 2.01 -15.66 1.02 -16 0 C-14.08416353 -0.1958009 -12.16727461 -0.38132214 -10.25 -0.5625 C-8.64898438 -0.71912109 -8.64898438 -0.71912109 -7.015625 -0.87890625 C-4.35858796 -0.98560074 -2.50039428 -0.81930395 0 0 Z " fill="#0C142C" transform="translate(750,350)"/>
<path d="M0 0 C0.66 0.33 1.32 0.66 2 1 C-2.75 5 -2.75 5 -5 5 C-5.33 6.32 -5.66 7.64 -6 9 C-6.99 8.67 -7.98 8.34 -9 8 C-9 7.34 -9 6.68 -9 6 C-7.03125 4.4921875 -7.03125 4.4921875 -4.5 2.875 C-3.6646875 2.33617187 -2.829375 1.79734375 -1.96875 1.2421875 C-1.3190625 0.83226562 -0.669375 0.42234375 0 0 Z " fill="#0F1C33" transform="translate(540,285)"/>
<path d="M0 0 C0.66 0.33 1.32 0.66 2 1 C2 4.96 2 8.92 2 13 C-1 10 -1 10 -1.25 6.5 C-1 3 -1 3 0 0 Z " fill="#172B47" transform="translate(84,528)"/>
<path d="M0 0 C0 4.38968456 -2.12805101 5.76905739 -5 9 C-5.99 8.67 -6.98 8.34 -8 8 C-5.36 5.36 -2.72 2.72 0 0 Z " fill="#283243" transform="translate(213,201)"/>
<path d="M0 0 C0.66 0.99 1.32 1.98 2 3 C0.35 4.32 -1.3 5.64 -3 7 C-3.66 6.67 -4.32 6.34 -5 6 C-3.35 4.02 -1.7 2.04 0 0 Z " fill="#09172D" transform="translate(170,250)"/>
</svg>
