<?xml version="1.0" encoding="UTF-8"?>
<svg version="1.1" xmlns="http://www.w3.org/2000/svg" width="1024" height="1024">
<path d="M0 0 C337.92 0 675.84 0 1024 0 C1024 337.92 1024 675.84 1024 1024 C686.08 1024 348.16 1024 0 1024 C0 686.08 0 348.16 0 0 Z " fill="#0C2441" transform="translate(0,0)"/>
<path d="M0 0 C337.92 0 675.84 0 1024 0 C1024 337.92 1024 675.84 1024 1024 C686.08 1024 348.16 1024 0 1024 C0 686.08 0 348.16 0 0 Z M445.0625 96.25 C444.06657837 96.41056381 444.06657837 96.41056381 443.05053711 96.57437134 C377.67757628 107.16535435 313.14004447 133.82786343 260.77001953 174.62695312 C259.06511986 175.94948496 257.346584 177.25136783 255.62109375 178.546875 C233.79316745 194.99029717 212.52651101 214.00012576 195 235 C194.19691406 235.92554688 193.39382812 236.85109375 192.56640625 237.8046875 C133.01392173 306.64744573 94.98616125 399.33756529 92.81469727 509.38134766 C92.81251733 512.5994199 92.79430277 515.81714447 92.77539062 519.03515625 C92.7187125 539.20919679 94.3191195 559.03934158 97.625 578.9375 C97.81674301 580.10448425 97.81674301 580.10448425 98.01235962 581.29504395 C107.1389047 636.30576501 126.90996593 689.96166361 157 737 C157.48146484 737.75394043 157.96292969 738.50788086 158.45898438 739.28466797 C176.72580706 767.67872447 197.96907518 792.93208412 221.6875 816.875 C222.542229 817.74286133 223.39695801 818.61072266 224.27758789 819.50488281 C229.45414511 824.68789149 234.82140369 829.44568041 240.5378418 834.02587891 C242.49095746 835.59185742 244.40198893 837.17992904 246.28515625 838.828125 C266.42044765 856.38632566 289.25840929 870.74458014 312.57910156 883.65820312 C314.09746844 884.49976669 315.6129277 885.34662118 317.12402344 886.20117188 C330.87135627 893.97403914 345.40272397 900.02768664 360 906 C360.86351074 906.35336426 361.72702148 906.70672852 362.61669922 907.07080078 C393.9780305 919.70125475 427.5198241 927.04666016 461 931 C461.73162354 931.08827057 462.46324707 931.17654114 463.21704102 931.26748657 C478.56315526 933.07415714 493.80944814 933.36003624 509.25 933.3125 C511.09534332 933.30976578 511.09534332 933.30976578 512.97796631 933.30697632 C572.90450934 933.15780378 630.27737449 921.60026981 685 897 C685.81597656 896.63874023 686.63195312 896.27748047 687.47265625 895.90527344 C733.74093698 875.31024604 774.99290907 844.19812961 810.66479492 808.52050781 C812.19237416 806.99513287 813.72783582 805.47799328 815.26367188 803.9609375 C821.62748267 797.63274386 827.41246602 791.03529554 833 784 C833.86327513 782.97235492 834.73166493 781.94893773 835.609375 780.93359375 C905.21722727 699.76677331 936.44444396 588.87424018 930.49136353 478.14048767 C929.65581311 468.3857855 928.42914415 458.68410831 927 449 C926.71914551 447.08985107 926.71914551 447.08985107 926.43261719 445.14111328 C920.53151514 406.52915282 908.89076933 368.24031762 892 333 C891.45931885 331.86643066 891.45931885 331.86643066 890.90771484 330.70996094 C889.00857966 326.75910583 887.04080449 322.84953541 885.015625 318.96191406 C883.93056815 316.86587636 882.87135704 314.75782141 881.8125 312.6484375 C866.48294233 282.43915197 846.65767612 254.47356392 823.5390625 229.72265625 C821.19070881 227.20449853 818.90364809 224.64358683 816.625 222.0625 C808.63241302 213.16590408 800.14031031 204.7141626 791 197 C789.95206034 196.08976595 788.90529407 195.17818013 787.859375 194.265625 C764.63814527 174.0651755 739.24785911 156.76003943 712.15576172 142.16601562 C710.08650994 141.04679179 708.02896494 139.90841062 705.97265625 138.765625 C646.57589961 106.09777054 579.0101006 91.67661411 511.6875 91.625 C510.59076965 91.62291534 509.49403931 91.62083069 508.36407471 91.61868286 C487.14406935 91.62326258 466.02067967 92.82222141 445.0625 96.25 Z " fill="#FEFEFE" transform="translate(0,0)"/>
<path d="M0 0 C1.5778125 0.86625 1.5778125 0.86625 3.1875 1.75 C10.34361957 7.47489565 16.213202 14.83222335 18 24 C19.02582282 36.25942348 16.66518486 45.62999324 8.7421875 55.1171875 C6.65777711 57.36984626 4.56848595 59.3121378 2 61 C1.34 61 0.68 61 0 61 C0 67.93 0 74.86 0 82 C2.62565918 81.99333817 5.25131836 81.98667633 7.95654297 81.97981262 C32.67716367 81.91852473 57.39777436 81.8738701 82.11845398 81.84456348 C94.82818603 81.82909544 107.53786233 81.80800703 120.24755859 81.77368164 C131.32548561 81.74377747 142.40337224 81.72442454 153.4813385 81.71773452 C159.34688312 81.71382401 165.21231223 81.70463489 171.07781982 81.68280983 C176.60006752 81.66242873 182.12215224 81.65616955 187.64443398 81.66067696 C189.66967975 81.65985249 191.69493105 81.6538966 193.72014427 81.64238358 C196.4894912 81.62741416 199.25822621 81.63106268 202.02758789 81.63923645 C202.82527525 81.63049793 203.62296261 81.6217594 204.44482231 81.61275607 C210.51938706 81.6610755 216.17329115 82.69715997 221.0234375 86.6484375 C225.14592743 91.91473966 227.52283529 95.91545607 227.3125 102.8828125 C226.54385332 108.09039379 224.01946691 112.38022838 220.125 115.875 C215.07256292 119.31065722 211.3254491 120.09194092 205.29296875 120.04296875 C204.30192139 120.03676514 203.31087402 120.03056152 202.28979492 120.02416992 C201.5341626 120.01619385 200.77853027 120.00821777 200 120 C200.50112305 121.12752686 201.00224609 122.25505371 201.51855469 123.41674805 C201.85521149 124.17422836 202.19186829 124.93170868 202.53872681 125.71214294 C203.30969504 127.44681629 204.08067109 129.18148616 204.85165405 130.91615295 C207.06127586 135.88770704 209.27074888 140.85932718 211.47998047 145.83105469 C216.03324158 156.07746084 220.58820288 166.32310163 225.1484375 176.56640625 C233.51191593 195.35660053 241.84182377 214.16048519 250.0949707 232.99942017 C257.43816987 249.7585155 264.85807702 266.48314252 272.30126953 283.19804382 C273.07743772 284.94269908 273.85220519 286.68797825 274.62548828 288.43391418 C276.49515848 292.65042259 278.38876036 296.85259288 280.3359375 301.03393555 C280.70705658 301.84073257 281.07817566 302.6475296 281.46054077 303.47877502 C282.15294959 304.98203746 282.85437219 306.48119918 283.56704712 307.97496033 C287.57116318 316.72608548 287.40719015 325.52986517 284.4375 334.6875 C276.5708811 353.30147149 263.64477488 367.19620546 244.9428997 375.21788025 C231.89128211 380.47184569 218.81326874 380.59506638 204.96484375 380.53125 C202.87130046 380.53395295 200.77775841 380.537842 198.68421936 380.54284668 C194.32312928 380.54870267 189.96236965 380.54030484 185.60131836 380.52148438 C180.05178268 380.49868322 174.50302063 380.5118507 168.95351315 380.53577423 C164.63882263 380.55032619 160.32431128 380.54558367 156.00961494 380.53526306 C153.96498075 380.5326224 151.9203295 380.53577012 149.87571526 380.54518127 C127.22742836 380.62660026 108.07406157 376.01999126 91.58203125 359.65234375 C90.30392578 358.33943359 90.30392578 358.33943359 89 357 C87.98486328 355.98099609 87.98486328 355.98099609 86.94921875 354.94140625 C77.43277903 344.79194393 71.69345746 332.65617338 71.77293396 318.70571899 C72.14270496 314.29952764 73.70532313 310.61201719 75.46875 306.59375 C75.82948608 305.73414673 76.19022217 304.87454346 76.56188965 303.9888916 C77.68929268 301.31750811 78.84206359 298.65827071 80 296 C80.6971162 294.37521513 81.39374484 292.75022097 82.08984375 291.125 C84.19570468 286.23626063 86.34564236 281.36751575 88.5 276.5 C89.28637799 274.71633529 90.0725056 272.93256017 90.85839844 271.14868164 C96.62452755 258.0702762 102.43232401 245.01032508 108.24682617 231.95336914 C112.75491335 221.82619601 117.21649754 211.67956283 121.64941406 201.51928711 C127.74382698 187.55262992 133.90552551 173.61593145 140.07739258 159.68334961 C145.77407418 146.8120306 151.38733193 133.90913655 157 121 C79.285 120.505 79.285 120.505 0 120 C0 217.02 0 314.04 0 414 C-11.88 414 -23.76 414 -36 414 C-36 316.98 -36 219.96 -36 120 C-88.14 120 -140.28 120 -194 120 C-191.36 125.61 -188.72 131.22 -186 137 C-184.61988503 140.0690451 -183.25057605 143.13543623 -181.9140625 146.22265625 C-181.21355523 147.82747988 -180.51303381 149.43229733 -179.8125 151.03710938 C-179.45671875 151.8546167 -179.1009375 152.67212402 -178.734375 153.5144043 C-172.25816679 168.38944504 -165.68171997 183.21623278 -159 198 C-151.01921772 215.66779479 -143.19776292 233.40240257 -135.42938232 251.16447449 C-132.65224608 257.51360613 -129.8669924 263.85913825 -127.078125 270.203125 C-126.67194946 271.127267 -126.26577393 272.051409 -125.84729004 273.0035553 C-123.48144642 278.38635013 -123.48144642 278.38635013 -121.11474609 283.76876831 C-119.36804682 287.74083708 -117.62462829 291.71423458 -115.89013672 295.69165039 C-114.67500968 298.47519499 -113.43710358 301.24640157 -112.17626953 304.00952148 C-107.41783881 314.54125539 -105.83097 323.34625597 -109.5625 334.6875 C-117.26892979 352.88549035 -129.96140961 366.71797689 -148 375 C-157.48798767 378.72147887 -166.26090492 380.14783001 -176.40087891 380.16113281 C-177.31736206 380.16609772 -178.23384521 380.17106262 -179.17810059 380.17617798 C-182.19426236 380.19071864 -185.21037151 380.19758883 -188.2265625 380.203125 C-189.78128328 380.20736607 -189.78128328 380.20736607 -191.36741257 380.21169281 C-196.85480756 380.22665443 -202.34217648 380.23590241 -207.82958984 380.24023438 C-213.46797951 380.24570775 -219.10612634 380.26972069 -224.74444008 380.29820633 C-229.10619784 380.31692995 -233.4678983 380.32204351 -237.82969284 380.32357025 C-239.90669453 380.32657648 -241.98369571 380.33453546 -244.0606575 380.34775543 C-258.14365524 380.43098146 -271.25759335 380.12246599 -284.0625 373.5 C-284.73095947 373.15888184 -285.39941895 372.81776367 -286.08813477 372.46630859 C-293.10618471 368.69374013 -298.50219286 363.69816454 -304 358 C-304.82242188 357.19691406 -305.64484375 356.39382813 -306.4921875 355.56640625 C-315.49472024 346.33653682 -321.67478014 334.21409275 -322.640625 321.2578125 C-322.46953349 311.59114242 -317.8460257 303.41892812 -313.75 294.875 C-312.91146351 293.07795199 -312.07555236 291.27967675 -311.2421875 289.48022461 C-309.59071388 285.9200323 -307.92844426 282.36526273 -306.25585938 278.81494141 C-303.41406602 272.76985187 -300.69330758 266.67520456 -298 260.5625 C-297.53883789 259.52319336 -297.07767578 258.48388672 -296.60253906 257.41308594 C-291.81809187 246.62627353 -287.08969192 235.81474846 -282.35253906 225.0071106 C-275.86778249 210.21512776 -269.3213765 195.45123916 -262.75183105 180.69674683 C-253.75945222 160.49739874 -244.86664551 140.25480416 -236 120 C-236.67329346 120.01160156 -237.34658691 120.02320313 -238.0402832 120.03515625 C-239.37579224 120.04869141 -239.37579224 120.04869141 -240.73828125 120.0625 C-241.61782471 120.07410156 -242.49736816 120.08570313 -243.40356445 120.09765625 C-248.49137143 119.90629539 -252.24026485 118.60626987 -256.015625 115.16015625 C-260.7792097 109.96087783 -262.39769959 106.33357557 -262.27734375 99.15234375 C-261.60402102 93.92698006 -259.0142097 89.61505397 -255.125 86.125 C-249.29581489 82.16115412 -244.127556 81.70979266 -237.30606079 81.75949097 C-236.44338825 81.75778212 -235.5807157 81.75607327 -234.69190156 81.75431263 C-231.80835052 81.75102483 -228.92503343 81.76200977 -226.04150391 81.77294922 C-223.97167974 81.77351349 -221.90185518 81.77319647 -219.83203125 81.77206421 C-214.21682807 81.7714903 -208.6017103 81.78325085 -202.98652697 81.79721212 C-197.1168667 81.80971308 -191.24720448 81.81088948 -185.37753296 81.81326294 C-174.26418335 81.81947956 -163.15087308 81.83589289 -152.03754079 81.85596192 C-139.38468536 81.87831521 -126.73182806 81.88931292 -114.0789578 81.89935279 C-88.05261598 81.92025893 -62.02631185 81.95584127 -36 82 C-36 75.07 -36 68.14 -36 61 C-37.65 60.34 -39.3 59.68 -41 59 C-47.97845516 53.96586604 -52.59411549 45.64894559 -54.6484375 37.39453125 C-55.98799562 28.27065205 -54.77457546 19.53939739 -49.375 11.875 C-36.95060477 -3.2423676 -18.10881239 -10.18620697 0 0 Z " fill="#FDFDFD" transform="translate(530,242)"/>
<path d="M0 0 C1.91169731 -0.00642769 1.91169731 -0.00642769 3.86201477 -0.01298523 C6.54381344 -0.01869561 9.22522313 -0.02020433 11.90698242 -0.01489258 C14.61906551 -0.01026874 17.33069945 -0.01715825 20.04272461 -0.03540039 C66.31965118 -0.34357746 66.31965118 -0.34357746 81.80078125 14.11328125 C91.86913028 25.21871345 94.46922746 36.24839289 94.3984375 50.82421875 C94.39631508 52.47618759 94.39631508 52.47618759 94.39414978 54.16152954 C94.38856877 57.66630817 94.37601971 61.17102205 94.36328125 64.67578125 C94.3582638 67.05729074 94.35370132 69.43880124 94.34960938 71.8203125 C94.33860556 77.64715737 94.32188632 83.47396468 94.30078125 89.30078125 C91.75041786 89.1878382 89.20169546 89.06234733 86.65234375 88.9296875 C85.9363501 88.89927368 85.22035645 88.86885986 84.48266602 88.83752441 C77.31198804 88.4455383 71.5759404 86.63075477 66.43359375 81.40234375 C61.8243552 75.646309 60.05981555 70.16128703 60.0625 62.765625 C60.04638672 61.54423828 60.03027344 60.32285156 60.01367188 59.06445312 C59.99671921 56.50981656 59.99154641 53.95507516 59.99804688 51.40039062 C59.97806641 50.18029297 59.95808594 48.96019531 59.9375 47.703125 C59.93451904 46.59445068 59.93153809 45.48577637 59.9284668 44.34350586 C59.0833594 40.2468223 57.52860189 38.91525466 54.30078125 36.30078125 C50.96685736 35.55493856 50.96685736 35.55493856 47.26660156 35.66967773 C46.23380569 35.65894478 46.23380569 35.65894478 45.18014526 35.647995 C42.91238245 35.63113947 40.64660667 35.65049688 38.37890625 35.671875 C36.79335365 35.67104562 35.20780114 35.66858361 33.62225342 35.66456604 C30.29998875 35.66170972 26.97839881 35.67638525 23.65625 35.70385742 C19.4183826 35.73782932 15.18173006 35.73195799 10.94380569 35.71319485 C7.66813221 35.70256995 4.3927361 35.71161394 1.11708832 35.72657967 C-0.44405541 35.73172935 -2.00522853 35.7313191 -3.5663681 35.72503471 C-15.35570464 35.69540573 -24.04390441 37.05800635 -32.90625 45.23046875 C-40.07496396 53.50806875 -41.36424225 62.73429671 -40.69921875 73.30078125 C-39.32620464 80.86399457 -35.44035213 88.21286164 -29.484375 93.12890625 C-23.18585415 97.44669425 -18.24694881 99.54902238 -10.50810242 99.56147766 C-9.79485316 99.56530321 -9.0816039 99.56912876 -8.34674102 99.57307023 C-5.96244912 99.58336926 -3.57839944 99.57941399 -1.1940918 99.57543945 C0.51778384 99.57978771 2.22965752 99.58497124 3.94152832 99.59092712 C8.58833734 99.60431782 13.23506503 99.60489559 17.88188958 99.60236382 C21.76347577 99.60129392 25.64504553 99.60617812 29.5266282 99.61096925 C38.68662857 99.62206521 47.84658795 99.62250168 57.0065918 99.61645508 C66.44907803 99.61041769 75.89141516 99.62272014 85.33387595 99.64402515 C93.44614622 99.66165431 101.5583691 99.66764033 109.67065781 99.6643874 C114.51330664 99.66257611 119.35584916 99.66519514 124.19848061 99.67910194 C128.75477688 99.69169663 133.31084129 99.68972065 137.86713409 99.67669106 C139.53600074 99.6743291 141.20488378 99.67704629 142.87373161 99.68531418 C154.66406454 99.73949751 164.45276855 99.05738886 173.30078125 90.30078125 C180.09749124 81.05304532 182.15016337 72.68524159 181.30078125 61.30078125 C179.87179341 52.89573457 174.84584182 46.75494283 168.86328125 40.92578125 C160.736471 35.77219426 151.94230973 35.25034052 142.51953125 34.984375 C141.82057739 34.9635939 141.12162354 34.94281281 140.40148926 34.92140198 C138.20133866 34.8567959 136.00108429 34.79744216 133.80078125 34.73828125 C132.29556283 34.69501108 130.79035432 34.65139432 129.28515625 34.60742188 C125.62380381 34.50120806 121.96233891 34.39969929 118.30078125 34.30078125 C117.15503831 30.10327886 116.01590727 25.9040546 114.8828125 21.703125 C114.49659598 20.27490148 114.10859145 18.84716021 113.71875 17.41992188 C113.15802373 15.36583278 112.60379554 13.31008314 112.05078125 11.25390625 C111.715625 10.01801758 111.38046875 8.78212891 111.03515625 7.50878906 C110.30078125 4.30078125 110.30078125 4.30078125 110.30078125 0.30078125 C116.43478828 0.22576517 122.5685193 0.17177607 128.70288086 0.13598633 C130.7830064 0.1210422 132.86310123 0.10067948 134.94311523 0.07446289 C159.93982871 -0.23235598 179.60627069 3.23054308 198.48828125 20.98828125 C212.28797846 35.33558549 217.88643079 52.79584187 217.57421875 72.30078125 C216.92432719 89.18509274 209.15152309 103.58692916 197.30078125 115.30078125 C196.54023437 116.08324219 195.7796875 116.86570312 194.99609375 117.671875 C180.0708988 132.1811219 162.38857164 134.76724957 142.5078125 134.68896484 C140.75360794 134.69303896 138.99940595 134.69838551 137.24520874 134.70489502 C132.5179187 134.71847465 127.79082692 134.71330894 123.06353378 134.70375776 C118.09418999 134.69611234 113.12486211 134.70322024 108.15551758 134.70791626 C99.81360863 134.71335968 91.4717796 134.70621943 83.12988281 134.69189453 C73.51350276 134.67557077 63.89731358 134.68086028 54.28093815 134.69737375 C45.99432534 134.71102903 37.70776969 134.71288858 29.42114925 134.70505774 C24.48513095 134.70040338 19.5492021 134.69969432 14.6131897 134.70966721 C9.97057882 134.71839368 5.32821179 134.71221223 0.68562698 134.69498444 C-1.00855481 134.69104973 -2.70275747 134.69210126 -4.39693069 134.69877243 C-23.63034885 134.76747072 -40.43214769 131.12330551 -54.64379883 117.40893555 C-56.00718981 116.05108399 -57.35376187 114.67640533 -58.69921875 113.30078125 C-59.36566406 112.6665625 -60.03210938 112.03234375 -60.71875 111.37890625 C-72.78334943 99.06920209 -77.26364828 81.04069674 -77.11938477 64.2878418 C-76.36138434 44.38367084 -66.5253137 29.68368921 -52.71875 16.39453125 C-51.09636418 14.93921033 -49.44724879 13.60144815 -47.69921875 12.30078125 C-47.13460938 11.87539063 -46.57 11.45 -45.98828125 11.01171875 C-32.42957761 1.68653439 -15.98595968 -0.01217022 0 0 Z " fill="#FCFCFD" transform="translate(441.69921875,676.69921875)"/>
<path d="M0 0 C0.66 0 1.32 0 2 0 C2.23372314 0.53214111 2.46744629 1.06428223 2.70825195 1.61254883 C21.87666823 45.24239037 41.12432369 88.83960288 60.66650391 132.3034668 C65.25941248 142.53725403 69.73806854 152.81948292 74.17480469 163.12182617 C74.74951076 164.42987759 75.36104999 165.72209998 76 167 C26.83 167 -22.34 167 -73 167 C-71.45901406 162.37704219 -69.75893973 158.03134141 -67.75390625 153.61328125 C-67.43139893 152.89602875 -67.1088916 152.17877625 -66.77661133 151.43978882 C-66.07615196 149.88244937 -65.3744562 148.32566556 -64.67166138 146.76937866 C-62.74319812 142.49768266 -60.82525453 138.22126397 -58.90625 133.9453125 C-58.50386612 133.04924789 -58.10148224 132.15318329 -57.68690491 131.22996521 C-53.27522469 121.39877276 -48.91454674 111.54520617 -44.5625 101.6875 C-44.1690036 100.79654633 -43.7755072 99.90559265 -43.37008667 98.98764038 C-38.98550421 89.05844604 -34.61249551 79.12422601 -30.25390625 69.18359375 C-29.86742416 68.30215698 -29.48094208 67.42072021 -29.08274841 66.51257324 C-27.55330962 63.02407734 -26.02395029 59.5355469 -24.49533081 56.04669189 C-19.08489283 43.70046603 -13.6202064 31.38032241 -8.05712891 19.10205078 C-5.20819854 12.79350017 -2.50355817 6.45383722 0 0 Z " fill="#0C2340" transform="translate(314,389)"/>
<path d="M0 0 C2.24335951 2.05761965 3.58350551 3.85269232 4.79907227 6.63720703 C5.1218515 7.36715378 5.44463074 8.09710052 5.77719116 8.84916687 C6.12013214 9.64401993 6.46307312 10.43887299 6.81640625 11.2578125 C7.3690062 12.5154113 7.3690062 12.5154113 7.93276978 13.79841614 C9.14926547 16.57111174 10.355816 19.34802199 11.5625 22.125 C12.41444537 24.07134055 13.26707558 26.01738147 14.12036133 27.96313477 C15.88442299 31.98861713 17.64458503 36.01576907 19.40136719 40.04443359 C22.94416583 48.16782536 26.50809082 56.28192172 30.07174683 64.3961792 C31.19448582 66.95341141 32.31621636 69.51108403 33.43774414 72.06884766 C38.25899456 83.06062785 43.11661859 94.03569681 48 105 C53.60187279 117.5792402 59.17302514 130.17171479 64.71362305 142.77807617 C65.52469247 144.62332788 66.3362105 146.46838248 67.14819336 148.31323242 C68.27598193 150.87617576 69.40195556 153.43990816 70.52734375 156.00390625 C70.86507309 156.77086319 71.20280243 157.53782013 71.55076599 158.32801819 C72.80777342 161.19673731 74.00894996 164.02684989 75 167 C26.16 167 -22.68 167 -73 167 C-71.20709342 161.62128025 -69.60541485 156.83616122 -67.27734375 151.78125 C-66.48420776 150.04536621 -66.48420776 150.04536621 -65.67504883 148.27441406 C-65.39351959 147.66311646 -65.11199036 147.05181885 -64.82192993 146.42199707 C-63.24732251 143.00014222 -61.69028915 139.57030319 -60.1328125 136.140625 C-59.79947403 135.40704773 -59.46613556 134.67347046 -59.12269592 133.91766357 C-55.10795142 125.06280666 -51.21054917 116.156682 -47.3125 107.25 C-45.77756918 103.74469291 -44.24236738 100.23950457 -42.70703125 96.734375 C-42.32093185 95.8527771 -41.93483246 94.9711792 -41.53703308 94.06286621 C-37.21453596 84.19833053 -32.8575342 74.34909538 -28.5 64.5 C-21.14274952 47.8690581 -13.81982347 31.2232855 -6.52148438 14.56640625 C-5.97435287 13.31839989 -5.97435287 13.31839989 -5.41616821 12.04518127 C-4.73454103 10.49031655 -4.05334405 8.93526314 -3.37265015 7.37998962 C-1.11237392 2.22474784 -1.11237392 2.22474784 0 0 Z " fill="#0C2340" transform="translate(708,389)"/>
<path d="M0 0 C0 3.60573896 -0.81707462 4.41336566 -3 7.1875 C-3.556875 7.90292969 -4.11375 8.61835937 -4.6875 9.35546875 C-5.120625 9.89816406 -5.55375 10.44085937 -6 11 C-6.33 10.01 -6.66 9.02 -7 8 C-5.56640625 5.95703125 -5.56640625 5.95703125 -3.5625 3.8125 C-2.90378906 3.09707031 -2.24507812 2.38164063 -1.56640625 1.64453125 C-1.04949219 1.10183594 -0.53257812 0.55914063 0 0 Z " fill="#0B152D" transform="translate(648,781)"/>
<path d="M0 0 C0.33 0.66 0.66 1.32 1 2 C-1.97 3.65 -4.94 5.3 -8 7 C-8.66 6.34 -9.32 5.68 -10 5 C-6.7 3.35 -3.4 1.7 0 0 Z " fill="#030D22" transform="translate(784,612)"/>
<path d="M0 0 C0.99 0 1.98 0 3 0 C1.47291037 3.43595166 -0.59927045 6.11912454 -3 9 C-2.44271087 5.65626525 -1.64826111 2.96687001 0 0 Z " fill="#0A162D" transform="translate(683,446)"/>
</svg>
