<svg version="1.1" id="Layer_1" xmlns="http://www.w3.org/2000/svg" xmlns:xlink="http://www.w3.org/1999/xlink" x="0px" y="0px"
	 width="100%" viewBox="0 0 1024 1024" enable-background="new 0 0 1024 1024" xml:space="preserve">
<path fill="#000000" opacity="1.000000" stroke="none" 
	d="
M727.425476,156.492401 
	C775.789673,186.778809 816.344055,224.837463 848.885559,271.292755 
	C880.722656,316.742523 901.810913,366.834869 913.437805,421.070190 
	C921.122375,456.915771 923.903442,493.174103 922.106506,529.630249 
	C917.870972,615.556641 890.320007,693.312073 838.086304,761.964539 
	C801.117737,810.553650 755.738953,849.291321 701.404968,877.327026 
	C662.051697,897.632996 620.387207,910.743958 576.619141,917.496704 
	C549.042236,921.751526 521.316589,923.454285 493.528656,922.178162 
	C419.479736,918.777527 351.190796,897.178894 288.996063,856.456909 
	C219.435852,810.912476 169.566849,749.043335 136.549316,673.259888 
	C122.682838,641.432922 113.558418,608.138916 108.523178,573.718933 
	C105.095177,550.285706 103.389923,526.725586 103.961143,503.118256 
	C105.937187,421.452301 127.026085,345.531433 173.480606,277.528168 
	C218.663330,211.386627 277.952332,161.908600 350.845978,128.947052 
	C383.711670,114.085632 418.237000,104.525467 454.035461,99.428848 
	C472.853516,96.749725 491.741425,95.110626 510.666260,95.107674 
	C587.626343,95.095665 659.357178,114.239082 724.979858,155.010498 
	C725.686279,155.449402 726.404968,155.868484 727.425476,156.492401 
M531.661438,341.643463 
	C531.334167,336.638336 535.042603,337.661743 537.832092,337.659760 
	C588.324707,337.623627 638.817261,337.627625 689.309875,337.663818 
	C691.034302,337.665070 692.945190,337.109558 694.459290,338.507294 
	C694.642944,340.554871 693.544556,342.119751 692.836304,343.762939 
	C665.096619,408.124908 637.579529,472.583923 608.338257,536.288452 
	C603.422852,546.996948 599.948303,558.262146 603.580566,570.127869 
	C608.597717,586.517517 619.468811,598.685974 632.687561,609.119995 
	C645.956665,619.593689 661.738342,621.134583 677.551392,621.480835 
	C702.868958,622.035034 728.207825,621.714111 753.536682,621.581177 
	C758.836426,621.553345 764.141174,620.822754 769.428040,620.267517 
	C790.033325,618.103455 805.196106,606.848755 817.540710,591.099792 
	C830.187988,574.964600 833.427856,557.839661 824.491943,538.452148 
	C795.365173,475.258484 768.206726,411.194031 740.849915,347.220734 
	C739.629517,344.366821 738.067993,341.585052 737.767822,338.435242 
	C739.598938,337.189331 741.487183,337.746613 743.272156,337.643555 
	C754.598328,336.989838 761.815308,329.609619 761.646423,318.805908 
	C761.481140,308.228729 753.753723,300.742096 742.846069,300.210541 
	C718.530884,299.025574 694.202454,299.461365 669.878418,299.432007 
	C625.551636,299.378571 581.224609,299.344238 536.898254,299.490173 
	C532.223450,299.505585 529.969299,298.353516 530.686890,293.393646 
	C530.899475,291.924408 530.881470,290.378845 530.696716,288.902313 
	C529.734741,281.211578 531.868958,275.426575 537.924561,269.717987 
	C549.085938,259.196259 551.562134,242.847336 545.073059,230.752457 
	C537.860413,217.308899 526.280334,210.549271 511.076355,211.517761 
	C496.498779,212.446335 485.975372,220.192764 480.616882,233.809601 
	C475.136139,247.737122 478.058167,260.851959 488.613007,270.997070 
	C494.246460,276.411865 496.123688,281.745270 495.362701,288.848663 
	C495.256805,289.837158 495.349457,290.846832 495.348114,291.846680 
	C495.338013,299.419281 495.337891,299.434113 487.699615,299.434326 
	C426.541931,299.435913 365.384216,299.400269 304.226593,299.467773 
	C296.403381,299.476410 288.567322,299.817963 280.761383,300.355804 
	C271.791412,300.973816 264.968750,308.093201 264.365662,316.973938 
	C263.651306,327.492889 268.833374,334.550293 278.364685,336.947815 
	C281.912079,337.840149 285.641266,336.845520 288.962128,338.238953 
	C289.448059,340.140778 288.425659,341.398773 287.846191,342.725922 
	C268.861298,386.205627 249.963333,429.723969 230.789536,473.120361 
	C221.102463,495.045258 211.143646,516.857849 200.868195,538.512695 
	C192.812836,555.488770 194.519226,571.117188 204.850555,586.562744 
	C220.546066,610.027771 242.219803,621.750305 270.433472,621.651489 
	C296.762604,621.559326 323.093750,621.791748 349.420837,621.544312 
	C356.695648,621.475952 364.128418,621.039062 371.166901,619.068787 
	C397.221558,611.775330 414.029083,594.571533 422.989899,569.393616 
	C424.430969,565.344543 425.143280,561.023071 424.483368,556.628906 
	C423.313751,548.840515 420.806580,541.494385 417.531433,534.343384 
	C390.702576,475.764771 365.450378,416.494385 339.969543,357.324585 
	C337.244049,350.995667 334.587128,344.637177 331.732025,337.899902 
	C333.647980,337.775269 334.793823,337.635712 335.939697,337.635590 
	C387.098877,337.631256 438.258179,337.696777 489.416931,337.550262 
	C494.159515,337.536652 495.333862,339.197388 495.267090,343.621735 
	C494.859894,370.609039 494.488495,397.599304 494.443085,424.589172 
	C494.316620,499.744598 494.352997,574.900330 494.333923,650.055969 
	C494.332397,656.133118 494.765137,656.587097 500.863739,656.628967 
	C508.528931,656.681641 516.194824,656.658875 523.860291,656.641235 
	C530.585632,656.625793 530.845947,656.366943 530.875183,649.552368 
	C531.073914,603.231750 530.990784,556.912292 531.465210,510.589874 
	C532.038635,454.603790 531.633423,398.607697 531.661438,341.643463 
M405.210114,682.812683 
	C401.827118,684.213440 398.395355,685.507751 395.068909,687.031921 
	C369.039215,698.959106 350.606903,731.719910 354.481232,759.642761 
	C360.187134,800.765991 391.898132,826.341064 429.812714,825.920471 
	C485.791412,825.299500 541.783203,825.642090 597.767761,825.913147 
	C612.289001,825.983398 625.346741,822.288269 637.315613,814.299622 
	C658.310425,800.286560 670.359680,780.579407 672.448547,755.583740 
	C674.502686,731.003479 664.355713,711.165771 645.389709,695.825684 
	C634.353394,686.899170 622.039917,680.147644 607.644958,678.937073 
	C591.206177,677.554626 574.686584,678.520142 558.202820,678.520508 
	C555.028870,678.520569 553.910889,680.363708 554.829834,683.597351 
	C557.418396,692.705566 559.905640,701.843933 562.295410,711.006287 
	C563.020569,713.786621 564.644165,714.735352 567.344604,714.707153 
	C574.008850,714.637573 580.674744,714.737915 587.339111,714.673035 
	C594.172424,714.606567 601.028137,714.516113 607.691528,716.207825 
	C625.090637,720.625488 636.291687,736.903442 634.234985,754.530212 
	C631.715149,776.125549 618.482483,789.139160 598.157288,789.194519 
	C541.671936,789.348328 485.185181,789.417542 428.700592,789.164795 
	C405.982178,789.063171 393.055634,773.836365 391.772125,752.603699 
	C390.624939,733.626892 407.159851,717.075928 426.993073,715.545654 
	C445.806091,714.094177 464.614868,714.927979 483.423004,714.722351 
	C494.012299,714.606506 500.205231,721.003418 500.322968,731.509766 
	C500.401367,738.507141 500.301056,745.506409 500.358582,752.504150 
	C500.417389,759.660522 503.536194,765.304810 509.162506,769.599609 
	C514.276794,773.503357 520.097717,774.883362 526.496399,774.747192 
	C539.820923,774.463440 538.627075,776.382568 538.666321,762.799683 
	C538.695679,752.635620 538.862244,742.467102 538.631592,732.308228 
	C538.129272,710.184570 527.074341,694.642395 507.867188,684.621582 
	C497.711334,679.323059 486.403168,678.795837 475.281311,678.492004 
	C460.629303,678.091736 445.952301,678.645020 431.297241,678.305359 
	C422.492371,678.101318 414.055817,679.114746 405.210114,682.812683 
z"/>
<path fill="#000000" opacity="1.000000" stroke="none" 
	d="
M232.415421,553.042053 
	C230.695419,552.905457 229.246719,553.311584 228.217316,551.627991 
	C255.367081,490.969604 282.582703,430.164032 309.798340,369.358490 
	C310.238708,369.328308 310.679047,369.298126 311.119415,369.267944 
	C337.407623,430.423645 364.568359,491.191467 392.727051,553.045837 
	C338.601868,553.045837 285.731262,553.045837 232.415421,553.042053 
z"/>
<path fill="#000000" opacity="1.000000" stroke="none" 
	d="
M728.256348,395.846130 
	C751.364380,448.018158 774.333008,499.838135 797.655823,552.457214 
	C742.760864,552.457214 688.665039,552.457214 633.526550,552.457214 
	C661.643799,491.338013 688.469482,430.411530 715.825806,367.847565 
	C720.298767,377.908508 724.207947,386.701294 728.256348,395.846130 
z"/>
</svg>