<?xml version="1.0" encoding="UTF-8"?>
<svg version="1.1" xmlns="http://www.w3.org/2000/svg" width="1024" height="1024">
<path d="M0 0 C337.92 0 675.84 0 1024 0 C1024 337.92 1024 675.84 1024 1024 C686.08 1024 348.16 1024 0 1024 C0 686.08 0 348.16 0 0 Z " fill="#031B39" transform="translate(0,0)"/>
<path d="M0 0 C11.53522752 7.53722253 17.0259949 16.63368494 20 30 C21.58900259 39.85830176 17.79573863 49.91364587 12.25 57.9375 C8.854466 62.55285819 8.854466 62.55285819 6.05169678 64.01954651 C3.46285259 65.44550175 1.85298593 66.67729064 0 69 C-1.15568439 74.11856208 -1.0761754 79.16242632 -1 84.375 C-1.00809912 85.79299404 -1.01978303 87.21097241 -1.03515625 88.62890625 C-1.06488099 92.08672901 -1.04572222 95.54225706 -1 99 C0.90336152 98.99446924 0.90336152 98.99446924 2.84517479 98.98882675 C32.9869458 98.90213878 63.12868457 98.83620967 93.27054974 98.79573868 C96.98293832 98.79073604 100.69532665 98.78555873 104.40771484 98.78027344 C105.51628888 98.77869957 105.51628888 98.77869957 106.64725836 98.77709392 C118.60361761 98.75970303 130.5598997 98.72817263 142.51621322 98.69138882 C154.79045139 98.65394269 167.06464923 98.6317564 179.33894217 98.62364602 C186.90889144 98.61816584 194.47862257 98.60087624 202.04850467 98.56833413 C207.85949156 98.54463043 213.67033962 98.54218942 219.4813652 98.54756927 C221.86053813 98.54647047 224.23971946 98.5385357 226.61884308 98.5231781 C229.87366791 98.50320147 233.1275684 98.50808947 236.38241577 98.51898193 C237.31824253 98.50733057 238.2540693 98.4956792 239.21825445 98.48367476 C246.11147583 98.54579223 253.29626026 99.76634604 258.65774381 104.44733977 C263.5651412 110.12399137 264.47050422 114.61818585 264.30078125 121.9609375 C263.66970124 128.33730434 261.2186409 132.41154925 256.3125 136.5 C249.64978819 140.65017402 241.52868738 139.46676133 234 139 C234.42667969 139.83015625 234.85335937 140.6603125 235.29296875 141.515625 C245.94972105 162.44570897 255.45971709 183.95575368 265.16096497 205.34059143 C269.38439095 214.65041223 273.6241179 223.95268437 277.875 233.25 C278.20488922 233.97156281 278.53477844 234.69312561 278.87466431 235.43655396 C284.42601227 247.57665624 289.99687858 259.70775778 295.57421875 271.8359375 C299.37929908 280.11025763 303.18040638 288.3863043 306.9609375 296.671875 C307.28458282 297.38113129 307.60822815 298.09038757 307.94168091 298.82113647 C309.24149199 301.66980509 310.5412842 304.51848231 311.84088135 307.36724854 C315.91842471 316.30196012 320.02327593 325.22359621 324.15625 334.1328125 C324.59115753 335.07032349 325.02606506 336.00783447 325.47415161 336.97375488 C327.60771565 341.57123166 329.74364763 346.16759469 331.88232422 350.76269531 C332.65853182 352.43294123 333.4347364 354.10318856 334.2109375 355.7734375 C334.74261536 356.91318527 334.74261536 356.91318527 335.28503418 358.07595825 C341.21755677 370.84960923 341.38421733 381.49649395 336.73193359 395.07519531 C329.25214123 414.74520299 314.56034077 430.29510786 296 440 C277.82557195 448.00589794 260.27241205 448.46454486 240.7578125 448.43359375 C238.2192267 448.43816471 235.68064214 448.44347297 233.14205933 448.44947815 C227.84188199 448.45837204 222.54186161 448.45626773 217.24169922 448.44604492 C211.16185535 448.43457558 205.08245326 448.44864026 199.00266755 448.4754414 C193.09571894 448.50048112 187.18893893 448.50274062 181.28194809 448.49632454 C178.79517762 448.49617247 176.30839817 448.50212059 173.82165909 448.51461601 C146.3212047 448.63336116 122.85343694 443.86774998 102.3046875 424.36328125 C89.26531584 410.99240014 80.57076674 394.84728821 79.4921875 375.95703125 C79.61208197 367.7837374 82.938591 361.35863888 86.5625 354.25 C87.24906435 352.85497369 87.93259389 351.45845021 88.61328125 350.06054688 C89.67213494 347.88677438 90.73268572 345.71404678 91.80252075 343.5456543 C95.21879504 336.61644874 98.41478672 329.595995 101.57925415 322.54904175 C106.8996114 310.70903821 112.34599884 298.93134673 117.875 287.1875 C122.09513486 278.22228634 126.2793312 269.24656368 130.31152344 260.19482422 C134.33329808 251.19605781 138.48709198 242.25825696 142.625 233.3125 C148.59369689 220.40679059 154.52449054 207.48528276 160.39099121 194.5328064 C164.19559997 186.13492681 168.02979549 177.75141085 171.8984375 169.3828125 C172.52005768 168.03802826 172.52005768 168.03802826 173.15423584 166.66607666 C175.1918624 162.25982489 177.23214758 157.85482186 179.27539062 153.45117188 C180.01434038 151.85547684 180.75327352 150.25977411 181.4921875 148.6640625 C181.83309418 147.93132111 182.17400085 147.19857971 182.52523804 146.44363403 C183.81681351 143.65206779 185.02638444 140.92084668 186 138 C124.29 138 62.58 138 -1 138 C-1 259.11 -1 380.22 -1 505 C-14.2 505 -27.4 505 -41 505 C-41 384.22 -41 263.44 -41 139 C-102.71 139 -164.42 139 -228 139 C-219.86714743 156.89227565 -211.7446977 174.72677843 -203.38183594 192.50219727 C-199.09522035 201.61347874 -194.9014512 210.7639491 -190.75 219.9375 C-185.05984132 232.5071135 -179.30370575 245.04489348 -173.5 257.5625 C-173.09628174 258.43333221 -172.69256348 259.30416443 -172.27661133 260.2013855 C-166.66610209 272.29830923 -161.01270699 284.37457122 -155.33700562 296.44100952 C-149.94211504 307.91776896 -144.67343576 319.44954677 -139.44384766 331.00244141 C-136.45915678 337.59495806 -133.4646081 344.18222488 -130.42578125 350.75 C-130.14356216 351.35997833 -129.86134308 351.96995667 -129.5705719 352.59841919 C-128.24684321 355.45737143 -126.92026342 358.31497346 -125.59106445 361.17138672 C-125.13046631 362.16412598 -124.66986816 363.15686523 -124.1953125 364.1796875 C-123.59227295 365.47495361 -123.59227295 365.47495361 -122.97705078 366.79638672 C-118.63066509 376.59910466 -121.72157074 387.27159227 -125 397 C-128.50674991 406.05891306 -133.49322337 413.83071521 -140 421 C-140.75023437 421.84304688 -141.50046875 422.68609375 -142.2734375 423.5546875 C-155.87807705 438.03988625 -175.64197997 447.35493988 -195.57503319 448.09569359 C-198.5617127 448.13655018 -201.54697472 448.14654772 -204.53393555 448.14526367 C-206.23074715 448.15030159 -206.23074715 448.15030159 -207.96183777 448.15544128 C-211.68680939 448.16490898 -215.41173585 448.1668924 -219.13671875 448.16796875 C-221.73973102 448.17118459 -224.34274311 448.17454891 -226.945755 448.17805481 C-232.39865409 448.18443606 -237.85154105 448.18593878 -243.30444336 448.18530273 C-249.57665478 448.18470312 -255.84877987 448.19523705 -262.12096947 448.2110464 C-268.18753003 448.22578393 -274.2540497 448.22928844 -280.32062721 448.22869301 C-282.88605921 448.22986754 -285.45149195 448.23425953 -288.01691246 448.24202538 C-291.61771018 448.25190377 -295.21829001 448.2489162 -298.8190918 448.24291992 C-299.863172 448.24853943 -300.9072522 448.25415894 -301.98297119 448.25994873 C-324.51334196 448.16536775 -345.00301514 441.02628337 -361 425 C-361.93199219 424.17435547 -361.93199219 424.17435547 -362.8828125 423.33203125 C-375.45649636 411.91422416 -382.42335624 393.83825993 -383.453125 377.109375 C-383.39076691 370.11944116 -380.52616782 364.50053594 -377.44934082 358.38601685 C-376.40605732 356.31250819 -375.3890725 354.2277838 -374.37792969 352.13842773 C-373.31516331 349.94271928 -372.25108564 347.74778999 -371.17935181 345.55644226 C-367.86989966 338.78500044 -364.74224309 331.93859411 -361.65118408 325.06530762 C-360.1114374 321.64334705 -358.56221241 318.22569583 -357.01171875 314.80859375 C-356.69307861 314.10634674 -356.37443848 313.40409973 -356.04614258 312.68057251 C-351.93601793 303.63847636 -347.74645864 294.63309784 -343.5625 285.625 C-337.64927797 272.89222729 -331.76345685 260.14794969 -325.9375 247.375 C-315.64463727 224.81366227 -305.24103757 202.30359371 -294.8125 179.8046875 C-294.38254227 178.87707611 -293.95258453 177.94946472 -293.50959778 176.9937439 C-291.4339428 172.51609669 -289.35757916 168.03878005 -287.2800293 163.56201172 C-283.48827298 155.38892126 -279.70576027 147.21257989 -276 139 C-276.66 139.33 -277.32 139.66 -278 140 C-285.68325275 140.73116758 -292.47843901 140.40366791 -299 136 C-304.4437772 131.16498928 -306.67252541 126.38390406 -307.375 119.125 C-307.1962589 113.61556837 -305.09449108 109.24338855 -301.3515625 105.234375 C-294.86950173 99.4033509 -289.40645666 98.70781897 -280.90776062 98.75949097 C-279.88260041 98.75778212 -278.85744019 98.75607327 -277.80121452 98.75431263 C-274.36179028 98.75101511 -270.9225606 98.76202593 -267.4831543 98.77294922 C-265.01939397 98.77351327 -262.5556333 98.77319688 -260.09187317 98.77206421 C-254.78534627 98.77160859 -249.47888008 98.77728603 -244.172369 98.78853989 C-236.50007372 98.80480041 -228.82780221 98.81000346 -221.15549157 98.81251587 C-208.70740732 98.81689211 -196.2593493 98.83019927 -183.8112793 98.84912109 C-171.71980928 98.86748174 -159.62834638 98.88163734 -147.53686523 98.89013672 C-146.79142996 98.89066217 -146.04599468 98.89118761 -145.27797046 98.89172898 C-141.53830586 98.89433907 -137.79864121 98.89686649 -134.05897653 98.89935279 C-103.03929862 98.92008307 -72.01965329 98.95545543 -41 99 C-40.89473195 94.89108842 -40.85688825 90.78725516 -40.87792969 86.67700195 C-40.87599869 85.28330714 -40.85655104 83.88951066 -40.81835938 82.49633789 C-40.52682772 73.81896331 -40.52682772 73.81896331 -44.1809082 66.19042969 C-46.78599038 63.81886201 -46.78599038 63.81886201 -49.51635742 61.89770508 C-56.55978839 56.51595054 -59.52869359 47.45089216 -61 39 C-62.22140641 29.36446051 -59.58533412 20.05003866 -53.8125 12.25 C-52.57416511 10.80483962 -51.30232814 9.38776915 -50 8 C-49.34128906 7.2884375 -48.68257813 6.576875 -48.00390625 5.84375 C-35.00160937 -6.94383005 -15.65372681 -9.16098785 0 0 Z " fill="#FDFDFD" transform="translate(533,155)"/>
<path d="M0 0 C1.12563952 -0.00611329 1.12563952 -0.00611329 2.27401924 -0.01235008 C6.25111729 -0.03309097 10.22818213 -0.0474404 14.20532227 -0.05688477 C17.45095797 -0.06570927 20.69616064 -0.08651573 23.94165039 -0.1184082 C51.19710052 -0.38038355 79.71446425 -0.43688881 100.97265625 19.48828125 C111.2438859 30.28577531 112.46760112 42.29866467 112.35546875 56.58203125 C112.35173201 57.96065057 112.34888816 59.33927257 112.34689331 60.71789551 C112.33930883 64.32148759 112.31970587 67.9249148 112.29748535 71.52844238 C112.27691427 75.2155535 112.26786767 78.90269162 112.2578125 82.58984375 C112.23645427 89.8060642 112.20238217 97.0221495 112.16015625 104.23828125 C109.44263173 104.26709292 106.72541661 104.2881074 104.0078125 104.3046875 C103.24359985 104.31359009 102.47938721 104.32249268 101.6920166 104.33166504 C92.41855895 104.37405514 85.96427236 102.54828485 78.8515625 96.4453125 C72.4439948 88.08439852 73.72573634 77.85533401 73.72070312 67.859375 C73.59362466 59.38455583 73.01787687 53.44670375 67.09765625 46.98828125 C57.17704582 41.07813036 47.49887264 40.64037507 36.28515625 40.70703125 C34.66812915 40.70432942 33.05110364 40.7004413 31.43408203 40.69543457 C28.06201553 40.68957189 24.69037584 40.69799698 21.31835938 40.71679688 C17.02485162 40.7395849 12.73234446 40.72644427 8.43887329 40.70250702 C5.10482424 40.68796082 1.77100723 40.69269507 -1.56304932 40.70301819 C-3.14487836 40.7056612 -4.72672941 40.70250248 -6.30853271 40.69309998 C-20.24075288 40.62843182 -31.73321052 43.29274731 -42.83984375 52.23828125 C-51.39661197 61.45728407 -52.50861955 73.19212478 -52.12109375 85.21484375 C-51.54788616 95.4991432 -47.24385323 105.49248477 -39.58984375 112.55078125 C-26.12903579 122.97775285 -10.99627461 123.68509654 5.29248047 123.62646484 C7.20254821 123.63053697 9.11261358 123.63588243 11.02267456 123.64239502 C16.17982373 123.656 21.3367916 123.65079776 26.49394369 123.64125776 C31.91126054 123.63362348 37.32856262 123.6407174 42.74588013 123.64541626 C51.8428219 123.65086381 60.93969045 123.64370948 70.03662109 123.62939453 C80.52489215 123.61307981 91.01298812 123.61835206 101.50125492 123.63487375 C110.53435247 123.64852893 119.56739759 123.65038833 128.60050213 123.64255774 C133.98313647 123.63790207 139.36568878 123.63719781 144.74831772 123.64716721 C149.81278976 123.65589312 154.87703823 123.64971313 159.94148636 123.63248444 C161.79005311 123.62854902 163.63863897 123.6296025 165.48719788 123.63627243 C182.07754125 123.69057099 197.95311424 122.64798495 211.03515625 111.11328125 C220.19654087 101.2691973 220.62398288 88.06635181 220.42578125 75.46484375 C220.05187784 65.13117993 216.56243012 58.92411207 209.57421875 51.4296875 C196.16278822 39.25523357 178.74062211 40.59348833 161.78515625 40.48828125 C159.48825923 40.46007261 157.19138272 40.4301385 154.89453125 40.3984375 C149.31648673 40.32515915 143.73856613 40.27317704 138.16015625 40.23828125 C137.80187744 39.13315186 137.44359863 38.02802246 137.07446289 36.8894043 C135.74581089 32.79121954 134.41699731 28.69308719 133.08813477 24.5949707 C132.5128953 22.82089648 131.93769971 21.04680802 131.36254883 19.27270508 C130.5360854 16.72343264 129.70946442 14.17421133 128.8828125 11.625 C128.62548843 10.83115402 128.36816437 10.03730804 128.1030426 9.21940613 C127.13110738 6.22258038 126.15643529 3.22711837 125.16015625 0.23828125 C133.37601032 0.16820243 141.59173569 0.11518056 149.80781651 0.08284473 C153.62450926 0.06731078 157.4409948 0.04630277 161.25756836 0.01196289 C164.95345478 -0.02107599 168.64914425 -0.03866349 172.34516716 -0.04635048 C173.74229971 -0.05181541 175.13942375 -0.06248175 176.53647041 -0.07890892 C201.52709732 -0.36057845 223.31724903 8.08304613 241.5 25.4765625 C258.09785605 42.81210104 262.85638406 63.9667052 262.4765625 87.33203125 C262.19466796 94.74857037 260.72017812 101.24874784 258.16015625 108.23828125 C257.80953125 109.26695312 257.45890625 110.295625 257.09765625 111.35546875 C254.04239103 119.52405978 249.39657404 126.35106056 244.16015625 133.23828125 C243.54398438 134.05296875 242.9278125 134.86765625 242.29296875 135.70703125 C229.90002794 150.81259001 210.20551248 160.24743625 191.16015625 163.23828125 C184.11149006 163.90934712 177.02587329 163.78714006 169.953125 163.75585938 C167.86837274 163.76129216 165.78362433 163.76842126 163.69888306 163.77709961 C158.08313547 163.79519831 152.46768472 163.78832141 146.85193253 163.77558327 C140.94709787 163.7653854 135.04228694 163.77486765 129.13745117 163.78112793 C119.22537724 163.78838469 109.31342292 163.77886853 99.40136719 163.75976562 C87.97688936 163.7380008 76.55269719 163.74505356 65.12822628 163.76707125 C55.2814259 163.78528158 45.43471101 163.78775611 35.58789921 163.77731657 C29.72345874 163.77111254 23.85915209 163.77016031 17.99472046 163.78346252 C12.4787104 163.79510271 6.96306504 163.78684736 1.44709396 163.7638855 C-0.56511457 163.75864176 -2.57735433 163.76003681 -4.58955002 163.76893616 C-19.4006496 163.82835168 -33.678092 162.75582863 -47.02734375 155.61328125 C-48.00368774 155.10776733 -48.00368774 155.10776733 -48.99975586 154.59204102 C-68.98451049 143.85836052 -83.86040518 126.38207596 -90.9765625 104.7890625 C-96.84826496 81.96102904 -94.72212233 59.42842867 -82.89990234 38.96875 C-80.27784305 34.68842843 -77.22636022 30.92913093 -73.83984375 27.23828125 C-73.17597656 26.48289062 -72.51210938 25.7275 -71.828125 24.94921875 C-52.74483987 4.41969574 -26.79366468 0.12450963 0 0 Z " fill="#FDFDFE" transform="translate(427.83984375,686.76171875)"/>
<path d="M0 0 C2.77200869 2.42879797 4.08341547 4.92282511 5.609375 8.2578125 C6.10864502 9.34070557 6.60791504 10.42359863 7.12231445 11.53930664 C7.9280188 13.31422485 7.9280188 13.31422485 8.75 15.125 C9.3252334 16.37971975 9.90101063 17.63419031 10.47729492 18.88842773 C12.01458282 22.23950551 13.54302748 25.59453751 15.06854248 28.95098877 C15.98353151 30.96377277 16.89996545 32.97589212 17.81689453 34.98779297 C20.92711254 41.81326448 24.03010771 48.64199349 27.12890625 55.47265625 C30.99185132 63.98668335 34.86555985 72.49575797 38.75 81 C39.07766357 81.71744385 39.40532715 82.4348877 39.74291992 83.17407227 C45.61016131 96.01447497 51.55239764 108.81951693 57.50192261 121.62194824 C64.66274535 137.03882371 71.69818837 152.51065961 78.68286133 168.00805664 C79.05843674 168.84111832 79.43401215 169.67417999 79.82096863 170.53248596 C80.54636932 172.14235353 81.27101342 173.75256227 81.99482727 175.36314392 C83.59375749 178.91486849 85.20665052 182.45764611 86.87255859 185.97851562 C87.42379395 187.14576172 87.9750293 188.31300781 88.54296875 189.515625 C89.02145264 190.51368164 89.49993652 191.51173828 89.99291992 192.54003906 C91 195 91 195 91 198 C31.6 198 -27.8 198 -89 198 C-88.09025338 193.45126692 -86.69835408 189.81947266 -84.74609375 185.68359375 C-84.24763443 184.60949753 -84.24763443 184.60949753 -83.73910522 183.51370239 C-83.01983158 181.96457262 -82.29824985 180.41651286 -81.57461548 178.86941528 C-79.62373472 174.69712424 -77.6908138 170.51653519 -75.7578125 166.3359375 C-75.35990005 165.47607742 -74.96198761 164.61621735 -74.55201721 163.7303009 C-70.54384572 155.04944461 -66.67121444 146.31054379 -62.8125 137.5625 C-57.72311053 126.03610501 -52.51344025 114.57842859 -47.14266968 103.18057251 C-42.31897016 92.93541804 -37.69368358 82.61112417 -33.125 72.25 C-27.12742419 58.65046176 -20.90944263 45.17042775 -14.54345703 31.73974609 C-9.55839396 21.22000621 -4.70865343 10.64678859 0 0 Z " fill="#031B39" transform="translate(742,327)"/>
<path d="M0 0 C2.47104916 2.22513628 3.78235584 4.28655894 5.13671875 7.3125 C5.54027588 8.20396729 5.94383301 9.09543457 6.35961914 10.01391602 C6.79781982 10.99932373 7.23602051 11.98473145 7.6875 13 C8.67943524 15.19672851 9.67163874 17.3933359 10.6640625 19.58984375 C11.4689209 21.38010986 11.4689209 21.38010986 12.29003906 23.20654297 C15.0212011 29.27480539 17.79372522 35.32424307 20.56219482 41.37554932 C21.57554603 43.59102233 22.58789485 45.80695131 23.60009766 48.02294922 C29.10271167 60.06478202 34.65117697 72.08519369 40.20794678 84.10211182 C45.72485777 96.03524126 51.18579689 107.99237364 56.60714722 119.96917725 C61.19680454 130.10259995 65.88322802 140.18695027 70.625 150.25 C75.34725449 160.27668146 80.01313382 170.32620379 84.56292725 180.43249512 C85.1418265 181.71828252 85.72192824 183.00352927 86.30328369 184.28820801 C87.10074598 186.05230358 87.89232837 187.81905369 88.68359375 189.5859375 C89.35733032 191.08713135 89.35733032 191.08713135 90.04467773 192.61865234 C91 195 91 195 91 197 C31.6 197 -27.8 197 -89 197 C-84.4954386 185.73859649 -84.4954386 185.73859649 -82.328125 180.91015625 C-81.83715332 179.81477539 -81.34618164 178.71939453 -80.84033203 177.59082031 C-80.31552246 176.42647461 -79.79071289 175.26212891 -79.25 174.0625 C-78.68209208 172.7991702 -78.11422205 171.53582337 -77.54638672 170.27246094 C-72.10478162 158.18044306 -66.58625344 146.12355346 -61.06504822 134.06773376 C-56.84076512 124.84365724 -52.63324219 115.61209203 -48.4375 106.375 C-48.12874939 105.69529144 -47.81999878 105.01558289 -47.50189209 104.3152771 C-46.25737184 101.57534423 -45.0129299 98.83537583 -43.76867676 96.09532166 C-41.64584318 91.4207636 -39.52078845 86.74722042 -37.39453125 82.07421875 C-36.17958922 79.40369053 -34.964752 76.73311466 -33.75 74.0625 C-33.29945755 73.0720166 -33.29945755 73.0720166 -32.83981323 72.06152344 C-28.90842172 63.41699284 -24.98851494 54.76733298 -21.078125 46.11328125 C-20.65674255 45.18091141 -20.23536011 44.24854156 -19.8012085 43.28791809 C-17.73567456 38.71733553 -15.67115647 34.14629892 -13.60839844 29.57446289 C-9.14187509 19.68303689 -4.61981289 9.82081606 0 0 Z " fill="#031B39" transform="translate(280,327)"/>
<path d="M0 0 C61.71 0 123.42 0 187 0 C186.10429689 4.47851553 185.74999027 5.77175056 183 9 C183.875 4.25 183.875 4.25 185 2 C184.01 2.33 183.02 2.66 182 3 C122.6 3 63.2 3 2 3 C2 123.12 2 243.24 2 367 C1.67 367 1.34 367 1 367 C0.67 245.89 0.34 124.78 0 0 Z " fill="#0A2446" transform="translate(532,293)"/>
<path d="M0 0 C61.71 0 123.42 0 187 0 C186.10429689 4.47851553 185.74999027 5.77175056 183 9 C183.875 4.25 183.875 4.25 185 2 C124.28 2 63.56 2 1 2 C0.67 1.34 0.34 0.68 0 0 Z " fill="#2F3647" transform="translate(532,293)"/>
<path d="M0 0 C5 6.36363636 5 6.36363636 5 11 C-54.4 11 -113.8 11 -175 11 C-175 10.34 -175 9.68 -175 9 C-116.26 9 -57.52 9 3 9 C2.01 7.02 1.02 5.04 0 3 C0 2.01 0 1.02 0 0 Z " fill="#262C3D" transform="translate(828,514)"/>
<path d="M0 0 C1.55140458 4.65421374 -0.94361934 7.82121489 -3 12.0625 C-3.33 12.701875 -3.66 13.34125 -4 14 C-4.53625 15.0725 -5.0725 16.145 -5.625 17.25 C-6.07875 18.1575 -6.5325 19.065 -7 20 C-7.66 19.67 -8.32 19.34 -9 19 C-6.03 12.73 -3.06 6.46 0 0 Z " fill="#0D1221" transform="translate(697,426)"/>
<path d="M0 0 C2.72426311 2.35277269 3.8141763 4.62496331 5 8 C3.824375 7.9690625 3.824375 7.9690625 2.625 7.9375 C0.01885039 7.81315937 0.01885039 7.81315937 -2 9 C-3 6 -3 6 -1.5625 2.8125 C-1.046875 1.884375 -0.53125 0.95625 0 0 Z " fill="#0D172C" transform="translate(742,327)"/>
<path d="M0 0 C5.61 0 11.22 0 17 0 C16.34 1.98 15.68 3.96 15 6 C14.67 5.01 14.34 4.02 14 3 C13.07316406 2.95101563 12.14632812 2.90203125 11.19140625 2.8515625 C9.99386719 2.77679688 8.79632813 2.70203125 7.5625 2.625 C6.36753906 2.55539062 5.17257813 2.48578125 3.94140625 2.4140625 C2.97074219 2.27742188 2.00007812 2.14078125 1 2 C0.67 1.34 0.34 0.68 0 0 Z " fill="#040710" transform="translate(240,294)"/>
<path d="M0 0 C1 2 1 2 0.125 4.9375 C-0.24625 5.948125 -0.6175 6.95875 -1 8 C-1.33 8.99 -1.66 9.98 -2 11 C-2.99 11.33 -3.98 11.66 -5 12 C-4.42365861 7.24518354 -2.44931479 4.02951788 0 0 Z " fill="#0A1224" transform="translate(717,383)"/>
<path d="M0 0 C0.33 0.66 0.66 1.32 1 2 C0.36971413 3.68076231 -0.29788106 5.34795544 -1 7 C-1 7.66 -1 8.32 -1 9 C-1.99 9.33 -2.98 9.66 -4 10 C-3.43454163 6.04179141 -2.19097652 3.3340947 0 0 Z " fill="#091020" transform="translate(270,350)"/>
</svg>
