<svg version="1.1" id="Layer_1" xmlns="http://www.w3.org/2000/svg" xmlns:xlink="http://www.w3.org/1999/xlink" x="0px" y="0px"
	 width="100%" viewBox="0 0 500 500" enable-background="new 0 0 500 500" xml:space="preserve">
<path fill="#000000" opacity="1.000000" stroke="none" 
	d="
M267.000000,501.000000 
	C178.000015,501.000000 89.500046,501.000000 1.000047,501.000000 
	C1.000032,334.333405 1.000032,167.666794 1.000016,1.000137 
	C167.666565,1.000091 334.333130,1.000091 500.999756,1.000046 
	C500.999847,167.666519 500.999847,334.333038 500.999939,500.999786 
	C423.166656,501.000000 345.333344,501.000000 267.000000,501.000000 
M270.546265,44.174686 
	C257.699097,44.113235 244.851898,44.037273 232.004700,44.033546 
	C231.367996,44.033360 230.731110,44.661846 229.209930,44.994194 
	C219.576202,46.910454 209.876114,48.548336 200.328110,50.824200 
	C191.443420,52.941944 182.289795,54.766872 174.014023,58.434410 
	C155.258423,66.746246 136.786209,76.017075 121.472786,89.946312 
	C109.179024,101.128838 96.934708,112.650414 86.482773,125.497597 
	C74.689400,139.993622 64.886841,156.202911 58.604836,174.005844 
	C54.680931,185.126038 51.721947,196.639297 49.111610,208.153381 
	C47.113190,216.968292 46.338646,226.060684 44.181976,235.316666 
	C44.118458,242.422012 43.973091,249.528091 44.037891,256.632263 
	C44.059223,258.971130 44.624233,261.305084 44.979965,264.537079 
	C45.320118,267.492279 45.679394,270.445435 45.996117,273.403137 
	C46.522808,278.321594 46.634399,283.322571 47.623974,288.144470 
	C49.106739,295.369476 50.962593,302.540771 53.095749,309.603210 
	C55.294701,316.883514 57.656567,324.158234 60.617290,331.151642 
	C63.172104,337.186249 66.851257,342.733856 69.713409,348.651489 
	C77.764732,365.298035 89.318504,379.426331 101.645569,392.933380 
	C113.621864,406.056091 127.897621,416.647034 142.951492,425.754822 
	C155.022385,433.057831 168.061798,439.183136 181.342438,443.968994 
	C203.943588,452.113586 227.349396,455.728058 251.675827,455.876587 
	C277.022675,456.031372 300.906342,450.644073 324.453735,442.680206 
	C343.074890,436.382446 359.843750,426.342834 375.599091,414.643860 
	C390.725250,403.412079 404.463684,390.607208 415.619232,375.463196 
	C429.522919,356.588562 440.328705,335.995300 447.739258,313.581909 
	C453.753662,295.391205 456.668671,276.816895 456.916962,257.792816 
	C457.044708,248.007111 456.656067,238.185272 455.900574,228.426208 
	C455.225555,219.706680 454.480103,210.868988 452.437469,202.403961 
	C447.773529,183.075684 440.745361,164.568710 430.342529,147.491821 
	C418.748444,128.459503 404.885986,111.449432 388.227997,96.430565 
	C375.476227,84.933533 361.586426,75.319763 346.631592,67.386269 
	C326.899750,56.918556 305.914917,49.594051 283.531372,46.918758 
	C279.285583,46.411297 275.071838,45.635830 270.546265,44.174686 
z"/>
<path fill="#0E284B" opacity="1.000000" stroke="none" 
	d="
M45.019741,235.029648 
	C46.338646,226.060684 47.113190,216.968292 49.111610,208.153381 
	C51.721947,196.639297 54.680931,185.126038 58.604836,174.005844 
	C64.886841,156.202911 74.689400,139.993622 86.482773,125.497597 
	C96.934708,112.650414 109.179024,101.128838 121.472786,89.946312 
	C136.786209,76.017075 155.258423,66.746246 174.014023,58.434410 
	C182.289795,54.766872 191.443420,52.941944 200.328110,50.824200 
	C209.876114,48.548336 219.576202,46.910454 229.889191,45.002110 
	C230.568436,45.010025 231.026077,45.135384 231.353119,45.384880 
	C237.080063,45.756706 242.481979,46.030251 247.879227,45.957268 
	C252.903488,45.889324 257.922760,45.452404 263.380371,45.107880 
	C266.158813,45.019901 268.501038,45.001961 270.843292,44.984020 
	C275.071838,45.635830 279.285583,46.411297 283.531372,46.918758 
	C305.914917,49.594051 326.899750,56.918556 346.631592,67.386269 
	C361.586426,75.319763 375.476227,84.933533 388.227997,96.430565 
	C404.885986,111.449432 418.748444,128.459503 430.342529,147.491821 
	C440.745361,164.568710 447.773529,183.075684 452.437469,202.403961 
	C454.480103,210.868988 455.225555,219.706680 455.900574,228.426208 
	C456.656067,238.185272 457.044708,248.007111 456.916962,257.792816 
	C456.668671,276.816895 453.753662,295.391205 447.739258,313.581909 
	C440.328705,335.995300 429.522919,356.588562 415.619232,375.463196 
	C404.463684,390.607208 390.725250,403.412079 375.599091,414.643860 
	C359.843750,426.342834 343.074890,436.382446 324.453735,442.680206 
	C300.906342,450.644073 277.022675,456.031372 251.675827,455.876587 
	C227.349396,455.728058 203.943588,452.113586 181.342438,443.968994 
	C168.061798,439.183136 155.022385,433.057831 142.951492,425.754822 
	C127.897621,416.647034 113.621864,406.056091 101.645569,392.933380 
	C89.318504,379.426331 77.764732,365.298035 69.713409,348.651489 
	C66.851257,342.733856 63.172104,337.186249 60.617290,331.151642 
	C57.656567,324.158234 55.294701,316.883514 53.095749,309.603210 
	C50.962593,302.540771 49.106739,295.369476 47.623974,288.144470 
	C46.634399,283.322571 46.522808,278.321594 45.996117,273.403137 
	C45.679394,270.445435 45.320118,267.492279 44.938362,263.646301 
	C44.937752,253.513565 44.978748,244.271606 45.019741,235.029648 
M264.048798,353.519806 
	C263.728149,353.033722 263.407501,352.547638 262.776398,351.423859 
	C258.052673,342.473114 252.062363,335.090790 240.804443,333.147919 
	C239.278976,332.763794 237.758881,332.074951 236.227112,332.047974 
	C229.402893,331.927765 222.573624,331.907806 215.749802,332.039398 
	C212.832672,332.095642 209.924377,332.610504 206.609726,333.093567 
	C206.609726,333.093567 206.170441,333.084290 205.436707,333.249603 
	C204.218582,333.777283 203.043915,334.466125 201.775711,334.808075 
	C186.830399,338.837585 177.238724,347.847626 174.695541,363.567413 
	C171.325775,384.396515 185.177994,402.717194 206.484589,405.557831 
	C206.643509,405.701630 206.812164,405.832947 207.601852,406.521484 
	C208.406158,406.678955 209.210342,406.973419 210.014786,406.974121 
	C237.761673,406.998718 265.508606,407.007568 293.255432,406.956848 
	C294.502502,406.954590 295.748566,406.376190 297.303009,405.854309 
	C297.502075,405.705933 297.693787,405.548615 298.374512,404.741150 
	C304.104462,402.120239 310.184113,400.062714 315.494843,396.766357 
	C328.277771,388.831879 331.778992,371.972290 328.063507,359.454254 
	C323.880035,345.359741 313.759613,336.718811 298.929382,333.327820 
	C298.234131,333.290955 297.538849,333.254089 296.213531,333.154602 
	C295.804626,333.055939 295.395721,332.957275 294.331085,332.354675 
	C289.580505,332.237671 284.828369,331.996979 280.079956,332.055847 
	C277.709076,332.085236 275.345001,332.662201 272.798615,333.689087 
	C273.151947,334.748962 273.505310,335.808838 273.908661,337.723938 
	C274.627472,341.787506 275.175323,345.894806 276.194153,349.881683 
	C276.427307,350.794128 278.260406,351.838409 279.396759,351.886536 
	C284.544128,352.104370 289.733246,352.322693 294.854828,351.901794 
	C300.704010,351.421112 305.402740,353.123474 308.320251,358.137573 
	C312.028076,364.509949 313.106354,371.055359 309.079865,378.042694 
	C304.703613,385.637085 297.937408,387.792419 289.298004,387.367645 
	C287.486847,387.242859 285.675781,387.011292 283.864471,387.009460 
	C260.590179,386.986115 237.315842,386.991608 214.041504,387.002045 
	C211.300629,387.003265 208.559784,387.077332 205.184647,386.945312 
	C203.313980,386.144714 201.337402,385.526581 199.590637,384.512573 
	C191.175812,379.627625 190.795212,367.940887 192.997421,361.603424 
	C194.906967,356.108215 200.537292,351.808563 206.076004,352.009521 
	C217.025345,352.008667 227.974670,352.007782 239.654755,352.144562 
	C243.593903,352.959930 245.031158,355.623108 245.010696,359.376007 
	C244.997116,361.869446 244.967636,364.363617 245.007614,366.856445 
	C245.158798,376.281677 254.077942,382.253937 263.510376,378.974091 
	C263.510376,378.974091 263.930115,378.919861 264.503815,379.079865 
	C264.400421,370.759491 264.297028,362.439117 264.048798,353.519806 
M241.978256,168.880768 
	C242.022018,186.532059 242.065781,204.183350 241.663681,222.396271 
	C241.759583,224.548523 241.937378,226.700729 241.938965,228.853058 
	C241.959488,256.485992 241.955338,284.118958 241.956314,311.751892 
	C241.956680,322.026337 241.955353,322.026337 252.183563,322.024261 
	C259.960388,322.022675 260.032806,321.949402 260.037903,314.263367 
	C260.070282,265.490417 260.103485,216.717484 261.051758,167.981537 
	C287.325562,167.957397 313.599335,167.933258 339.910828,168.587051 
	C338.642273,172.251190 337.642944,176.036331 336.059570,179.558975 
	C328.279358,196.868607 320.287018,214.082779 312.484375,231.382446 
	C307.668274,242.060577 303.302887,252.947495 298.292908,263.531311 
	C291.999542,276.826355 298.458130,294.486725 311.939545,300.947632 
	C320.489960,305.045471 329.418335,306.233093 338.667114,306.044189 
	C350.873322,305.794830 363.090118,305.637085 375.273682,304.939545 
	C379.424408,304.701904 384.026581,303.818481 387.465546,301.686584 
	C392.582916,298.514160 397.094757,294.218536 401.419983,289.950653 
	C407.288086,284.160339 408.728973,276.984863 405.535217,269.391357 
	C401.947205,260.860413 397.783142,252.573410 393.963074,244.137970 
	C390.179169,235.782364 386.538605,227.361969 382.785461,218.992279 
	C379.045288,210.651489 375.231995,202.343521 371.471863,194.011658 
	C367.659882,185.565125 363.873688,177.106949 360.080353,168.663147 
	C363.463409,167.985519 366.153076,167.777573 368.594727,166.888474 
	C373.588562,165.069992 376.356598,159.387268 373.849091,155.954361 
	C371.962189,153.371094 369.317108,151.341629 366.649170,148.545303 
	C366.065277,148.327637 365.481384,148.109970 364.280853,147.375580 
	C362.304901,147.250641 360.329041,147.019028 358.352936,147.016678 
	C325.622986,146.977676 292.893005,146.967468 260.102600,146.110245 
	C261.007080,143.263107 261.125397,139.702774 262.950562,137.690857 
	C271.371094,128.408768 271.672272,117.937843 260.693848,109.147697 
	C251.822556,102.044685 237.257278,107.140610 234.390747,118.157211 
	C232.253098,126.372505 234.978470,132.925430 240.112885,139.835938 
	C241.963882,146.490570 241.599777,146.996796 234.825729,146.998062 
	C203.789169,147.003860 172.752594,146.985092 141.716141,147.043335 
	C139.808701,147.046906 137.902374,147.636490 135.997177,148.664551 
	C136.001862,148.901566 136.006561,149.138565 135.639465,149.937592 
	C131.111221,151.910980 128.095444,155.230835 129.123886,160.282608 
	C130.501205,167.048004 135.825714,168.703415 142.765182,167.983032 
	C135.320175,184.751862 128.332245,200.769974 121.110260,216.681839 
	C113.356758,233.764801 105.348511,250.731995 97.529037,267.785278 
	C95.433418,272.355560 94.024933,277.112366 96.840836,281.933472 
	C99.140404,285.870544 101.142715,290.112122 104.093597,293.509186 
	C109.363159,299.575531 115.892075,304.220825 124.179169,304.979553 
	C132.090683,305.703888 140.066208,305.728973 148.505966,306.544342 
	C150.000626,306.379974 151.495285,306.215637 153.925018,306.070374 
	C158.959290,306.081116 163.993561,306.091888 169.590622,306.589752 
	C171.743042,306.109009 173.895462,305.628296 176.843155,305.095551 
	C185.896545,303.277374 194.587372,300.687439 200.483719,292.853241 
	C205.357376,286.377869 210.543213,279.857178 206.951935,270.924988 
	C203.759567,262.985016 200.420609,255.101074 196.998260,247.257004 
	C189.012268,228.953033 180.956650,210.679306 172.889236,192.411011 
	C169.321121,184.331100 165.655991,176.294037 162.949539,168.080292 
	C189.320297,168.059799 215.691071,168.039307 241.987701,168.009735 
	C241.987701,168.009735 241.993759,167.935287 241.978256,168.880768 
z"/>
<path fill="#9BA3AE" opacity="1.000000" stroke="none" 
	d="
M231.026077,45.135384 
	C231.026077,45.135384 230.568436,45.010025 230.331360,45.003811 
	C230.731110,44.661846 231.367996,44.033360 232.004700,44.033546 
	C244.851898,44.037273 257.699097,44.113235 270.694763,44.579353 
	C268.501038,45.001961 266.158813,45.019901 262.919556,45.043045 
	C251.690414,45.077297 241.358246,45.106339 231.026077,45.135384 
z"/>
<path fill="#A2ACB8" opacity="1.000000" stroke="none" 
	d="
M44.600861,235.173157 
	C44.978748,244.271606 44.937752,253.513565 44.918697,263.198395 
	C44.624233,261.305084 44.059223,258.971130 44.037891,256.632263 
	C43.973091,249.528091 44.118458,242.422012 44.600861,235.173157 
z"/>
<path fill="#000000" opacity="1.000000" stroke="none" 
	d="
M367.009552,149.065613 
	C369.317108,151.341629 371.962189,153.371094 373.849091,155.954361 
	C376.356598,159.387268 373.588562,165.069992 368.594727,166.888474 
	C366.153076,167.777573 363.463409,167.985519 360.080353,168.663147 
	C363.873688,177.106949 367.659882,185.565125 371.471863,194.011658 
	C375.231995,202.343521 379.045288,210.651489 382.785461,218.992279 
	C386.538605,227.361969 390.179169,235.782364 393.963074,244.137970 
	C397.783142,252.573410 401.947205,260.860413 405.535217,269.391357 
	C408.728973,276.984863 407.288086,284.160339 401.419983,289.950653 
	C397.094757,294.218536 392.582916,298.514160 387.465546,301.686584 
	C384.026581,303.818481 379.424408,304.701904 375.273682,304.939545 
	C363.090118,305.637085 350.873322,305.794830 338.667114,306.044189 
	C329.418335,306.233093 320.489960,305.045471 311.939545,300.947632 
	C298.458130,294.486725 291.999542,276.826355 298.292908,263.531311 
	C303.302887,252.947495 307.668274,242.060577 312.484375,231.382446 
	C320.287018,214.082779 328.279358,196.868607 336.059570,179.558975 
	C337.642944,176.036331 338.642273,172.251190 339.703796,167.863312 
	C313.868805,167.092575 288.240845,167.036728 262.612854,167.038559 
	C261.787354,167.038620 260.961884,167.629227 260.136414,167.944550 
	C260.103485,216.717484 260.070282,265.490417 260.037903,314.263367 
	C260.032806,321.949402 259.960388,322.022675 252.183563,322.024261 
	C241.955353,322.026337 241.956680,322.026337 241.956314,311.751892 
	C241.955338,284.118958 241.959488,256.485992 241.938965,228.853058 
	C241.937378,226.700729 241.759583,224.548523 242.219452,221.870880 
	C242.844223,204.217239 242.924576,187.089005 242.940155,169.960678 
	C242.940765,169.285843 242.323257,168.610428 241.993759,167.935287 
	C241.993759,167.935287 241.987701,168.009735 241.820938,167.623077 
	C215.523209,167.159927 189.392258,167.077805 163.261246,167.058212 
	C162.852768,167.057907 162.443695,167.827316 162.034897,168.237518 
	C165.655991,176.294037 169.321121,184.331100 172.889236,192.411011 
	C180.956650,210.679306 189.012268,228.953033 196.998260,247.257004 
	C200.420609,255.101074 203.759567,262.985016 206.951935,270.924988 
	C210.543213,279.857178 205.357376,286.377869 200.483719,292.853241 
	C194.587372,300.687439 185.896545,303.277374 176.025299,305.063934 
	C173.147568,305.389099 171.087708,305.745880 169.027832,306.102661 
	C163.993561,306.091888 158.959290,306.081116 153.234497,305.783356 
	C151.033844,305.684692 149.523727,305.873047 148.013596,306.061432 
	C140.066208,305.728973 132.090683,305.703888 124.179169,304.979553 
	C115.892075,304.220825 109.363159,299.575531 104.093597,293.509186 
	C101.142715,290.112122 99.140404,285.870544 96.840836,281.933472 
	C94.024933,277.112366 95.433418,272.355560 97.529037,267.785278 
	C105.348511,250.731995 113.356758,233.764801 121.110260,216.681839 
	C128.332245,200.769974 135.320175,184.751862 142.765182,167.983032 
	C135.825714,168.703415 130.501205,167.048004 129.123886,160.282608 
	C128.095444,155.230835 131.111221,151.910980 136.277451,149.513885 
	C170.560898,149.062897 204.206390,149.049622 237.851715,148.967117 
	C239.538284,148.962982 241.223373,148.359116 242.930115,147.598785 
	C242.306335,144.330795 245.039139,140.262115 239.979675,139.045929 
	C234.978470,132.925430 232.253098,126.372505 234.390747,118.157211 
	C237.257278,107.140610 251.822556,102.044685 260.693848,109.147697 
	C271.672272,117.937843 271.371094,128.408768 262.950562,137.690857 
	C261.125397,139.702774 261.007080,143.263107 260.086792,146.785904 
	C260.069031,147.634140 260.067078,147.806717 260.280945,148.345886 
	C262.476837,148.810822 264.456848,148.992889 266.437073,148.995056 
	C299.961243,149.031830 333.485382,149.046249 367.009552,149.065613 
M134.512482,271.705566 
	C152.611359,271.798157 170.710220,271.902008 188.809219,271.941254 
	C189.516373,271.942810 190.224884,271.326355 191.435669,270.606720 
	C187.833893,262.030670 184.335892,253.409195 180.605713,244.889374 
	C175.183472,232.504776 169.666748,220.160156 164.049347,207.862885 
	C160.448563,199.980240 156.594086,192.213516 152.306992,183.252899 
	C149.841110,188.566177 147.914902,192.723572 145.982834,196.878235 
	C142.011505,205.418106 137.925919,213.906937 134.088242,222.506409 
	C127.244713,237.841415 120.515053,253.227859 113.899529,268.662140 
	C113.576286,269.416260 114.812622,271.801178 115.298683,271.794037 
	C121.549530,271.701935 127.795998,271.312408 134.512482,271.705566 
M389.800354,270.317596 
	C376.748627,241.140991 363.696899,211.964386 350.645172,182.787781 
	C349.003143,184.692169 348.693817,186.290253 348.060425,187.747467 
	C343.067932,199.233292 338.087952,210.725601 332.959808,222.151154 
	C326.245178,237.111435 319.379547,252.003906 312.623840,266.945862 
	C311.202759,270.088898 311.801727,272.087158 315.805817,271.995880 
	C319.935394,271.901794 324.073395,272.092773 328.199097,271.934601 
	C332.809937,271.757782 337.411102,271.328705 342.504333,271.706635 
	C357.744080,271.792419 372.983795,271.887573 388.223663,271.925018 
	C388.758179,271.926331 389.294159,271.354065 389.800354,270.317596 
z"/>
<path fill="#000000" opacity="1.000000" stroke="none" 
	d="
M241.074005,333.897339 
	C252.062363,335.090790 258.052673,342.473114 262.895996,352.207397 
	C263.039490,361.654022 263.063324,370.317108 263.087158,378.980194 
	C254.077942,382.253937 245.158798,376.281677 245.007614,366.856445 
	C244.967636,364.363617 244.997116,361.869446 245.010696,359.376007 
	C245.031158,355.623108 243.593903,352.959930 239.080048,351.705994 
	C228.061493,351.170654 217.617706,351.054626 207.173660,351.022095 
	C206.505524,351.020020 205.835388,351.664917 205.166183,352.008850 
	C200.537292,351.808563 194.906967,356.108215 192.997421,361.603424 
	C190.795212,367.940887 191.175812,379.627625 199.590637,384.512573 
	C201.337402,385.526581 203.313980,386.144714 205.767090,387.388367 
	C234.205460,387.850922 262.061371,387.870422 289.917297,387.889954 
	C297.937408,387.792419 304.703613,385.637085 309.079865,378.042694 
	C313.106354,371.055359 312.028076,364.509949 308.320251,358.137573 
	C305.402740,353.123474 300.704010,351.421112 294.854828,351.901794 
	C289.733246,352.322693 284.544128,352.104370 279.396759,351.886536 
	C278.260406,351.838409 276.427307,350.794128 276.194153,349.881683 
	C275.175323,345.894806 274.627472,341.787506 273.933197,336.860443 
	C275.115723,335.334076 276.254822,334.138733 277.434845,334.096863 
	C283.885101,333.868134 290.345367,333.922821 297.179016,333.910248 
	C298.060028,333.926666 298.564240,333.912933 299.068451,333.899170 
	C313.759613,336.718811 323.880035,345.359741 328.063507,359.454254 
	C331.778992,371.972290 328.277771,388.831879 315.494843,396.766357 
	C310.184113,400.062714 304.104462,402.120239 297.680847,404.943359 
	C279.651489,405.152039 262.315796,405.158478 244.515625,405.110413 
	C231.468307,405.135712 218.885452,405.215546 206.302597,405.295380 
	C185.177994,402.717194 171.325775,384.396515 174.695541,363.567413 
	C177.238724,347.847626 186.830399,338.837585 201.775711,334.808075 
	C203.043915,334.466125 204.218582,333.777283 205.969971,333.560059 
	C217.278488,333.880402 228.053726,333.890259 239.202698,333.923615 
	C240.075607,333.930511 240.574799,333.913910 241.074005,333.897339 
z"/>
<path fill="#0C1939" opacity="1.000000" stroke="none" 
	d="
M240.046280,139.440933 
	C245.039139,140.262115 242.306335,144.330795 242.470123,147.576141 
	C206.657959,147.977295 171.326736,147.965347 135.995529,147.953415 
	C137.902374,147.636490 139.808701,147.046906 141.716141,147.043335 
	C172.752594,146.985092 203.789169,147.003860 234.825729,146.998062 
	C241.599777,146.996796 241.963882,146.490570 240.046280,139.440933 
z"/>
<path fill="#444863" opacity="1.000000" stroke="none" 
	d="
M135.996353,148.308990 
	C171.326736,147.965347 206.657959,147.977295 242.449158,148.011871 
	C241.223373,148.359116 239.538284,148.962982 237.851715,148.967117 
	C204.206390,149.049622 170.560898,149.062897 136.463348,149.232880 
	C136.006561,149.138565 136.001862,148.901566 135.996353,148.308990 
z"/>
<path fill="#414861" opacity="1.000000" stroke="none" 
	d="
M366.829346,148.805450 
	C333.485382,149.046249 299.961243,149.031830 266.437073,148.995056 
	C264.456848,148.992889 262.476837,148.810822 260.743042,148.339020 
	C295.625427,147.941132 330.261475,147.916718 364.897491,147.892288 
	C365.481384,148.109970 366.065277,148.327637 366.829346,148.805450 
z"/>
<path fill="#0B1939" opacity="1.000000" stroke="none" 
	d="
M364.589172,147.633942 
	C330.261475,147.916718 295.625427,147.941132 260.527283,147.972427 
	C260.067078,147.806717 260.069031,147.634140 260.117004,147.206192 
	C292.893005,146.967468 325.622986,146.977676 358.352936,147.016678 
	C360.329041,147.019028 362.304901,147.250641 364.589172,147.633942 
z"/>
<path fill="#081A3D" opacity="1.000000" stroke="none" 
	d="
M296.995087,406.066132 
	C295.748566,406.376190 294.502502,406.954590 293.255432,406.956848 
	C265.508606,407.007568 237.761673,406.998718 210.014786,406.974121 
	C209.210342,406.973419 208.406158,406.678955 207.765717,406.227692 
	C220.276917,405.904572 232.624283,405.875244 245.438812,405.904175 
	C262.935699,405.997009 279.965393,406.031586 296.995087,406.066132 
z"/>
<path fill="#323C4B" opacity="1.000000" stroke="none" 
	d="
M289.607666,387.628784 
	C262.061371,387.870422 234.205460,387.850922 206.084229,387.474548 
	C208.559784,387.077332 211.300629,387.003265 214.041504,387.002045 
	C237.315842,386.991608 260.590179,386.986115 283.864471,387.009460 
	C285.675781,387.011292 287.486847,387.242859 289.607666,387.628784 
z"/>
<path fill="#A4AEC0" opacity="1.000000" stroke="none" 
	d="
M162.492218,168.158905 
	C162.443695,167.827316 162.852768,167.057907 163.261246,167.058212 
	C189.392258,167.077805 215.523209,167.159927 241.858002,167.627625 
	C215.691071,168.039307 189.320297,168.059799 162.492218,168.158905 
z"/>
<path fill="#A3ADBE" opacity="1.000000" stroke="none" 
	d="
M260.594086,167.963043 
	C260.961884,167.629227 261.787354,167.038620 262.612854,167.038559 
	C288.240845,167.036728 313.868805,167.092575 339.684967,167.524338 
	C313.599335,167.933258 287.325562,167.957397 260.594086,167.963043 
z"/>
<path fill="#878CA3" opacity="1.000000" stroke="none" 
	d="
M241.986008,168.408020 
	C242.323257,168.610428 242.940765,169.285843 242.940155,169.960678 
	C242.924576,187.089005 242.844223,204.217239 242.442383,221.590073 
	C242.065781,204.183350 242.022018,186.532059 241.986008,168.408020 
z"/>
<path fill="#4F5C76" opacity="1.000000" stroke="none" 
	d="
M297.149048,405.960205 
	C279.965393,406.031586 262.935699,405.997009 245.443451,405.734222 
	C244.980881,405.506012 244.980087,405.164948 244.980087,405.164917 
	C262.315796,405.158478 279.651489,405.152039 297.432709,405.263947 
	C297.693787,405.548615 297.502075,405.705933 297.149048,405.960205 
z"/>
<path fill="#5D6480" opacity="1.000000" stroke="none" 
	d="
M244.515625,405.110413 
	C244.980087,405.164948 244.980881,405.506012 244.976257,405.675964 
	C232.624283,405.875244 220.276917,405.904572 207.460052,405.942810 
	C206.812164,405.832947 206.643509,405.701630 206.393585,405.426605 
	C218.885452,405.215546 231.468307,405.135712 244.515625,405.110413 
z"/>
<path fill="#02112A" opacity="1.000000" stroke="none" 
	d="
M240.939224,333.522644 
	C240.574799,333.913910 240.075607,333.930511 239.000107,333.554504 
	C227.953232,333.080292 217.482651,332.998627 207.012070,332.916962 
	C209.924377,332.610504 212.832672,332.095642 215.749802,332.039398 
	C222.573624,331.907806 229.402893,331.927765 236.227112,332.047974 
	C237.758881,332.074951 239.278976,332.763794 240.939224,333.522644 
z"/>
<path fill="#46546C" opacity="1.000000" stroke="none" 
	d="
M205.621094,352.009186 
	C205.835388,351.664917 206.505524,351.020020 207.173660,351.022095 
	C217.617706,351.054626 228.061493,351.170654 238.714676,351.637177 
	C227.974670,352.007782 217.025345,352.008667 205.621094,352.009186 
z"/>
<path fill="#F2FBFE" opacity="1.000000" stroke="none" 
	d="
M206.810898,333.005249 
	C217.482651,332.998627 227.953232,333.080292 238.626404,333.531067 
	C228.053726,333.890259 217.278488,333.880402 206.336838,333.477417 
	C206.170441,333.084290 206.609726,333.093567 206.810898,333.005249 
z"/>
<path fill="#0D1D3D" opacity="1.000000" stroke="none" 
	d="
M231.353119,45.384876 
	C241.358246,45.106339 251.690414,45.077297 262.483398,45.113091 
	C257.922760,45.452404 252.903488,45.889324 247.879227,45.957268 
	C242.481979,46.030251 237.080063,45.756706 231.353119,45.384876 
z"/>
<path fill="#D2D6F7" opacity="1.000000" stroke="none" 
	d="
M296.802216,333.880096 
	C290.345367,333.922821 283.885101,333.868134 277.434845,334.096863 
	C276.254822,334.138733 275.115723,335.334076 273.908203,336.432831 
	C273.505310,335.808838 273.151947,334.748962 273.358368,333.340942 
	C280.941010,332.948059 287.963928,332.903351 294.986816,332.858612 
	C295.395721,332.957275 295.804626,333.055939 296.517609,333.351685 
	C296.821686,333.548737 296.802216,333.880096 296.802216,333.880096 
z"/>
<path fill="#6E7385" opacity="1.000000" stroke="none" 
	d="
M263.298767,378.977142 
	C263.063324,370.317108 263.039490,361.654022 263.051270,352.526245 
	C263.407501,352.547638 263.728149,353.033722 264.061798,354.274963 
	C264.026581,362.993378 263.978333,370.956604 263.930115,378.919861 
	C263.930115,378.919861 263.510376,378.974091 263.298767,378.977142 
z"/>
<path fill="#05122B" opacity="1.000000" stroke="none" 
	d="
M264.216949,378.999878 
	C263.978333,370.956604 264.026581,362.993378 264.134216,354.574432 
	C264.297028,362.439117 264.400421,370.759491 264.216949,378.999878 
z"/>
<path fill="#03122B" opacity="1.000000" stroke="none" 
	d="
M294.658936,332.606628 
	C287.963928,332.903351 280.941010,332.948059 273.447998,332.992126 
	C275.345001,332.662201 277.709076,332.085236 280.079956,332.055847 
	C284.828369,331.996979 289.580505,332.237671 294.658936,332.606628 
z"/>
<path fill="#0D1E33" opacity="1.000000" stroke="none" 
	d="
M169.309235,306.346191 
	C171.087708,305.745880 173.147568,305.389099 175.627655,305.089935 
	C173.895462,305.628296 171.743042,306.109009 169.309235,306.346191 
z"/>
<path fill="#0D1E33" opacity="1.000000" stroke="none" 
	d="
M148.259781,306.302887 
	C149.523727,305.873047 151.033844,305.684692 152.766968,305.773804 
	C151.495285,306.215637 150.000626,306.379974 148.259781,306.302887 
z"/>
<path fill="#03122B" opacity="1.000000" stroke="none" 
	d="
M297.179016,333.910248 
	C296.802216,333.880096 296.821686,333.548737 296.832642,333.382965 
	C297.538849,333.254089 298.234131,333.290955 298.998901,333.613495 
	C298.564240,333.912933 298.060028,333.926666 297.179016,333.910248 
z"/>
<path fill="#0F284A" opacity="1.000000" stroke="none" 
	d="
M342.016479,271.009430 
	C337.411102,271.328705 332.809937,271.757782 328.199097,271.934601 
	C324.073395,272.092773 319.935394,271.901794 315.805817,271.995880 
	C311.801727,272.087158 311.202759,270.088898 312.623840,266.945862 
	C319.379547,252.003906 326.245178,237.111435 332.959808,222.151154 
	C338.087952,210.725601 343.067932,199.233292 348.060425,187.747467 
	C348.693817,186.290253 349.003143,184.692169 350.645172,182.787781 
	C363.696899,211.964386 376.748627,241.140991 389.361603,270.672363 
	C373.287384,271.021210 357.651947,271.015320 342.016479,271.009430 
z"/>
<path fill="#0F284A" opacity="1.000000" stroke="none" 
	d="
M134.043579,270.998199 
	C127.795998,271.312408 121.549530,271.701935 115.298683,271.794037 
	C114.812622,271.801178 113.576286,269.416260 113.899529,268.662140 
	C120.515053,253.227859 127.244713,237.841415 134.088242,222.506409 
	C137.925919,213.906937 142.011505,205.418106 145.982834,196.878235 
	C147.914902,192.723572 149.841110,188.566177 152.306992,183.252899 
	C156.594086,192.213516 160.448563,199.980240 164.049347,207.862885 
	C169.666748,220.160156 175.183472,232.504776 180.605713,244.889374 
	C184.335892,253.409195 187.833893,262.030670 190.721649,270.808807 
	C171.352951,271.006683 152.698273,271.002441 134.043579,270.998199 
z"/>
<path fill="#444C64" opacity="1.000000" stroke="none" 
	d="
M134.278030,271.351868 
	C152.698273,271.002441 171.352951,271.006683 190.470200,271.004364 
	C190.224884,271.326355 189.516373,271.942810 188.809219,271.941254 
	C170.710220,271.902008 152.611359,271.798157 134.278030,271.351868 
z"/>
<path fill="#3F4861" opacity="1.000000" stroke="none" 
	d="
M342.260406,271.358032 
	C357.651947,271.015320 373.287384,271.021210 389.376160,271.038147 
	C389.294159,271.354065 388.758179,271.926331 388.223663,271.925018 
	C372.983795,271.887573 357.744080,271.792419 342.260406,271.358032 
z"/>
</svg>