<svg version="1.1" id="Layer_1" xmlns="http://www.w3.org/2000/svg" xmlns:xlink="http://www.w3.org/1999/xlink" x="0px" y="0px"
	 width="100%" viewBox="0 0 496 496" enable-background="new 0 0 496 496" xml:space="preserve">
<path fill="#000000" opacity="1.000000" stroke="none" 
	d="
M275.000000,497.000000 
	C183.333359,497.000000 92.166710,497.000000 1.000033,497.000000 
	C1.000000,414.333374 1.000000,331.666748 1.000000,249.000122 
	C1.000000,166.333481 1.000000,83.666832 1.000000,1.000138 
	C166.333237,1.000092 331.666473,1.000092 496.999756,1.000046 
	C496.999847,166.333191 496.999847,331.666382 496.999939,496.999786 
	C423.166656,497.000000 349.333344,497.000000 275.000000,497.000000 
M448.614746,286.317688 
	C451.950836,270.249969 451.725586,253.966644 451.673981,237.681625 
	C451.662811,234.157776 450.996674,230.758560 450.662567,227.298599 
	C449.369049,213.903564 446.643463,200.776321 442.492950,188.017624 
	C436.719666,170.270676 428.390137,153.708130 418.440460,137.897949 
	C406.616333,119.109322 391.608398,103.232109 374.386627,89.485779 
	C358.188049,76.556152 340.272217,66.541100 320.668243,59.452316 
	C303.391541,53.205074 285.701630,48.735573 267.457611,47.597137 
	C240.081467,45.888855 213.206909,49.092014 186.953644,57.710079 
	C157.646347,67.330666 132.119202,83.075165 110.151825,104.388107 
	C98.498489,115.694275 88.586815,128.656784 80.200478,142.714828 
	C56.986744,181.628067 45.741024,223.153976 51.238701,268.726166 
	C53.881554,290.633728 59.121651,311.623962 68.632408,331.610931 
	C78.610619,352.580231 90.855034,371.879883 106.988190,388.720184 
	C119.511871,401.792908 133.681274,412.716064 149.270523,421.678650 
	C163.641769,429.940979 178.725357,436.861115 194.612549,441.831787 
	C212.480240,447.422119 230.857864,449.592987 249.505173,449.929932 
	C268.723663,450.277161 287.544403,447.557159 305.963898,442.227661 
	C322.759888,437.367859 338.426392,429.970032 353.707703,421.421600 
	C380.571259,406.393890 401.795807,385.462463 418.235565,359.908661 
	C432.587830,337.599670 443.172180,313.380157 448.614746,286.317688 
z"/>
<path fill="#000000" opacity="1.000000" stroke="none" 
	d="
M235.818909,128.570358 
	C233.829178,121.684151 233.549332,115.238197 238.045303,109.700462 
	C243.973938,102.398148 255.462463,101.193008 262.179535,106.823723 
	C268.655304,112.252151 269.592102,125.515472 263.923798,132.396011 
	C261.731384,135.057297 259.082916,137.209030 259.276337,141.350082 
	C259.481506,145.742599 261.075562,147.449081 265.568634,147.690186 
	C288.355225,148.912949 311.153870,148.594879 333.951202,148.632034 
	C338.771515,148.639893 343.546143,148.464279 348.351746,147.727142 
	C354.812256,146.736176 361.289734,148.151642 367.696899,148.882187 
	C371.674347,149.335678 373.394379,152.950653 373.230530,156.685043 
	C373.039398,161.039871 370.437225,164.170578 366.191772,165.283127 
	C360.301575,166.826706 360.406616,166.679977 362.729370,172.396164 
	C375.287048,203.299667 390.121643,233.185928 403.414917,263.758789 
	C409.677338,278.161621 402.048645,291.848938 388.110718,299.155457 
	C382.220062,302.243439 375.661194,303.566071 368.835968,303.478821 
	C355.340057,303.306274 341.837341,303.596436 328.343414,303.357758 
	C313.354431,303.092651 302.883209,295.391144 296.708832,282.146301 
	C294.482574,277.370636 294.621796,271.789734 296.876312,266.664917 
	C309.709656,237.493088 322.552795,208.325546 335.418518,179.167953 
	C336.627472,176.428085 337.985443,173.752075 339.330139,171.074493 
	C341.040558,167.668762 339.613617,166.030396 336.230774,165.607254 
	C334.585999,165.401550 332.905731,165.436890 331.241486,165.436234 
	C310.410828,165.428101 289.580170,165.437546 268.749512,165.433304 
	C259.740967,165.431458 259.380188,165.766037 259.379364,174.620773 
	C259.375061,221.114716 259.378510,267.608643 259.372559,314.102600 
	C259.371613,321.359253 259.355286,321.408661 251.954178,321.366425 
	C241.545776,321.307037 242.648376,322.583649 242.637939,312.011047 
	C242.592865,266.350403 242.610443,220.689667 242.595139,175.028961 
	C242.592270,166.490311 241.564484,165.448746 233.204041,165.443039 
	C212.373383,165.428833 191.542709,165.419983 170.712051,165.427719 
	C162.890045,165.430634 161.975113,166.733826 165.041382,173.742966 
	C176.473190,199.874939 188.157318,225.899628 199.258759,252.170807 
	C202.046387,258.767670 206.202499,264.867493 206.530289,272.607391 
	C206.980789,283.244446 201.330383,290.267975 193.838333,296.117218 
	C187.280212,301.237305 179.494858,303.554291 171.000046,303.454559 
	C157.670441,303.298035 144.336777,303.506836 131.006485,303.382538 
	C116.601219,303.248199 103.492233,294.627319 98.665840,282.393951 
	C96.637878,277.253693 96.608391,272.369598 98.733818,267.033417 
	C111.274834,235.547592 126.141747,205.088318 139.503006,173.967484 
	C142.118576,167.875366 142.021301,167.455963 135.783661,165.285324 
	C131.006302,163.622864 128.576553,159.700974 129.764221,154.671967 
	C130.828430,150.165787 134.036163,148.538635 138.684921,148.555801 
	C170.273132,148.672394 201.861969,148.633057 233.450562,148.608444 
	C236.713867,148.605911 240.633423,149.375793 242.096405,145.365784 
	C243.467987,141.606277 242.795578,137.839111 240.071609,134.589783 
	C238.580490,132.811142 237.321106,130.838226 235.818909,128.570358 
M381.333435,249.038300 
	C380.886353,248.338547 380.330048,247.685486 380.008209,246.932220 
	C371.807953,227.740494 363.678711,208.518219 355.404633,189.358459 
	C354.086700,186.306595 353.240601,182.729889 349.241821,180.815109 
	C347.061798,185.479691 344.884613,189.898621 342.908875,194.405853 
	C332.537964,218.065216 322.244324,241.758438 311.860931,265.412292 
	C309.433289,270.942444 309.713928,271.574127 315.884399,271.583649 
	C338.677643,271.618835 361.471008,271.618134 384.264221,271.569397 
	C386.165131,271.565308 388.297302,272.119415 390.250061,269.957855 
	C387.412842,263.340424 384.500885,256.548706 381.333435,249.038300 
M160.499725,271.593567 
	C168.665619,271.582947 176.833282,271.671356 184.996811,271.527130 
	C190.514297,271.429626 191.889771,269.164062 189.709076,264.209961 
	C178.276749,238.238007 166.842880,212.266708 155.358719,186.317657 
	C154.593689,184.589020 154.151703,182.425644 151.840485,181.902817 
	C150.009415,182.657852 149.517242,184.351318 148.859863,185.827286 
	C145.281525,193.861435 141.810806,201.943481 138.237244,209.979797 
	C130.071518,228.342957 121.839523,246.676697 113.697044,265.050110 
	C111.372452,270.295563 112.204865,271.547974 118.003571,271.573242 
	C131.835373,271.633545 145.667633,271.593781 160.499725,271.593567 
z"/>
<path fill="#000000" opacity="1.000000" stroke="none" 
	d="
M279.122009,331.621155 
	C290.041443,331.647705 300.333832,331.166565 310.246399,336.263702 
	C333.174957,348.053741 336.193054,379.163361 315.713501,395.193695 
	C308.850922,400.565308 300.819946,401.917725 292.650299,403.490112 
	C281.807892,405.576843 271.013550,402.994110 260.150269,403.837799 
	C248.092926,404.774292 235.923035,404.208191 223.804474,404.426636 
	C214.592957,404.592621 205.653656,403.162720 196.871765,400.473297 
	C184.274170,396.615295 175.661972,383.593109 174.405106,370.474274 
	C172.053101,345.925079 194.356094,331.937439 213.122726,331.640320 
	C221.952881,331.500488 230.797318,331.888000 239.616943,331.553070 
	C251.194458,331.113373 263.334473,344.133820 262.464935,354.661346 
	C261.959076,360.786072 262.288147,366.986877 262.385620,373.151184 
	C262.431305,376.043640 261.439484,377.578308 258.354614,377.362305 
	C255.555893,377.166321 252.756424,377.660004 249.955856,376.672668 
	C246.050369,375.295837 244.609024,372.577911 244.583618,368.676392 
	C244.553406,364.036133 244.539902,359.437286 243.846054,354.771606 
	C243.174606,350.256470 240.742065,348.527496 236.959381,348.484833 
	C226.659531,348.368561 216.317108,347.702484 206.086716,349.576447 
	C198.241608,351.013489 190.684799,360.991180 191.463394,368.783112 
	C192.408890,378.245361 200.732025,385.685638 209.931381,386.715668 
	C227.555542,388.688965 245.105011,385.470215 262.689972,386.599487 
	C268.315125,386.960724 273.945740,386.899933 279.593109,387.333649 
	C288.102570,387.987152 296.996704,388.377899 304.333160,382.419434 
	C310.815887,377.154236 313.031219,368.327850 310.048706,360.357117 
	C307.312805,353.045471 301.726471,349.592499 292.831879,349.348419 
	C288.198303,349.221252 283.576508,348.658478 278.949890,348.286377 
	C277.279236,348.152039 276.041382,347.374268 275.782623,345.649109 
	C275.117554,341.214569 273.254242,337.133972 271.737915,332.793427 
	C274.028931,331.032654 276.435333,331.870575 279.122009,331.621155 
z"/>
</svg>